<svg width="425" height="84" viewBox="0 0 425 84" fill="none" xmlns="http://www.w3.org/2000/svg">
<rect x="1" y="1" width="422.61" height="81.8025" rx="15" fill="white" stroke="url(#paint0_linear)" stroke-width="2"/>
<path d="M71.7716 50.0215V35.4616H78.0948C78.9684 35.4616 79.7657 35.6696 80.4867 36.0856C81.2078 36.4877 81.7763 37.0424 82.1923 37.7496C82.6222 38.4429 82.8371 39.2264 82.8371 40.0999C82.8371 40.9319 82.6222 41.7015 82.1923 42.4087C81.7763 43.1021 81.2078 43.6567 80.4867 44.0727C79.7795 44.4749 78.9822 44.6759 78.0948 44.6759H74.4132V50.0215H71.7716ZM80.2163 50.0215L76.514 43.4487L79.3011 42.9287L83.4195 50.0423L80.2163 50.0215ZM74.4132 42.3255H78.1156C78.5177 42.3255 78.8644 42.2354 79.1555 42.0551C79.4606 41.861 79.6963 41.5975 79.8627 41.2647C80.0291 40.9319 80.1123 40.5645 80.1123 40.1623C80.1123 39.7047 80.0083 39.3096 79.8003 38.9768C79.5923 38.644 79.3011 38.3805 78.9268 38.1864C78.5524 37.9922 78.1225 37.8952 77.6372 37.8952H74.4132V42.3255ZM90.5484 50.2295C89.3974 50.2295 88.3782 49.9868 87.4908 49.5015C86.6172 49.0162 85.9308 48.3575 85.4316 47.5255C84.9463 46.6796 84.7036 45.7159 84.7036 44.6343C84.7036 43.7746 84.8423 42.9911 85.1196 42.2839C85.3969 41.5767 85.7782 40.9666 86.2636 40.4535C86.7628 39.9266 87.3521 39.5245 88.0316 39.2472C88.7249 38.956 89.4806 38.8104 90.2988 38.8104C91.0198 38.8104 91.6923 38.949 92.3163 39.2263C92.9403 39.5037 93.4811 39.885 93.9387 40.3703C94.3963 40.8418 94.743 41.4103 94.9787 42.0759C95.2283 42.7277 95.3462 43.4418 95.3323 44.2183L95.3115 45.1127H86.43L85.9516 43.3655H93.1691L92.8363 43.7191V43.2615C92.7947 42.8317 92.6561 42.4573 92.4203 42.1383C92.1846 41.8055 91.8795 41.549 91.5051 41.3687C91.1446 41.1746 90.7425 41.0775 90.2988 41.0775C89.6193 41.0775 89.0438 41.2093 88.5724 41.4727C88.1148 41.7362 87.7681 42.1175 87.5324 42.6167C87.2966 43.1021 87.1788 43.7122 87.1788 44.4471C87.1788 45.1543 87.3244 45.7714 87.6156 46.2983C87.9206 46.8252 88.3436 47.2343 88.8844 47.5255C89.439 47.8028 90.0838 47.9415 90.8188 47.9415C91.3318 47.9415 91.8033 47.8583 92.2331 47.6919C92.663 47.5255 93.1275 47.2274 93.6267 46.7975L94.8955 48.5655C94.5211 48.9122 94.0913 49.2103 93.6059 49.4599C93.1345 49.6956 92.6353 49.8828 92.1083 50.0215C91.5814 50.1602 91.0614 50.2295 90.5484 50.2295ZM98.5966 50.0215V38.0824C98.5966 37.4168 98.7422 36.8274 99.0334 36.3144C99.3246 35.7874 99.7267 35.3784 100.24 35.0872C100.753 34.7821 101.349 34.6296 102.029 34.6296C102.5 34.6296 102.937 34.7128 103.339 34.8792C103.741 35.0317 104.081 35.2466 104.358 35.524L103.568 37.4584C103.388 37.3058 103.193 37.188 102.985 37.1048C102.791 37.0216 102.604 36.98 102.424 36.98C102.146 36.98 101.911 37.0285 101.717 37.1256C101.536 37.2088 101.398 37.3405 101.301 37.5208C101.217 37.701 101.176 37.916 101.176 38.1656V50.0215H99.8862C99.6366 50.0215 99.4009 50.0215 99.179 50.0215C98.971 50.0215 98.7769 50.0215 98.5966 50.0215ZM96.891 41.5351V39.2888H103.651V41.5351H96.891ZM105.764 50.0215V39.06H108.281L108.322 42.5543L107.969 41.7639C108.121 41.2093 108.385 40.7101 108.759 40.2663C109.133 39.8226 109.563 39.4759 110.049 39.2263C110.548 38.9629 111.068 38.8312 111.609 38.8312C111.844 38.8312 112.066 38.852 112.274 38.8936C112.496 38.9352 112.676 38.9837 112.815 39.0392L112.129 41.8471C111.976 41.7639 111.789 41.6946 111.567 41.6391C111.345 41.5837 111.123 41.5559 110.901 41.5559C110.555 41.5559 110.222 41.6253 109.903 41.7639C109.598 41.8887 109.327 42.069 109.092 42.3047C108.856 42.5405 108.669 42.8178 108.53 43.1367C108.405 43.4418 108.343 43.7885 108.343 44.1767V50.0215H105.764ZM119.189 50.2295C118.038 50.2295 117.019 49.9868 116.131 49.5015C115.258 49.0162 114.571 48.3575 114.072 47.5255C113.587 46.6796 113.344 45.7159 113.344 44.6343C113.344 43.7746 113.483 42.9911 113.76 42.2839C114.037 41.5767 114.419 40.9666 114.904 40.4535C115.403 39.9266 115.993 39.5245 116.672 39.2472C117.365 38.956 118.121 38.8104 118.939 38.8104C119.66 38.8104 120.333 38.949 120.957 39.2263C121.581 39.5037 122.122 39.885 122.579 40.3703C123.037 40.8418 123.383 41.4103 123.619 42.0759C123.869 42.7277 123.987 43.4418 123.973 44.2183L123.952 45.1127H115.07L114.592 43.3655H121.81L121.477 43.7191V43.2615C121.435 42.8317 121.297 42.4573 121.061 42.1383C120.825 41.8055 120.52 41.549 120.146 41.3687C119.785 41.1746 119.383 41.0775 118.939 41.0775C118.26 41.0775 117.684 41.2093 117.213 41.4727C116.755 41.7362 116.409 42.1175 116.173 42.6167C115.937 43.1021 115.819 43.7122 115.819 44.4471C115.819 45.1543 115.965 45.7714 116.256 46.2983C116.561 46.8252 116.984 47.2343 117.525 47.5255C118.079 47.8028 118.724 47.9415 119.459 47.9415C119.972 47.9415 120.444 47.8583 120.874 47.6919C121.303 47.5255 121.768 47.2274 122.267 46.7975L123.536 48.5655C123.162 48.9122 122.732 49.2103 122.246 49.4599C121.775 49.6956 121.276 49.8828 120.749 50.0215C120.222 50.1602 119.702 50.2295 119.189 50.2295ZM129.899 50.2295C128.929 50.2295 128.055 50.07 127.279 49.7511C126.516 49.4183 125.892 48.9468 125.407 48.3367L127.071 46.9015C127.487 47.373 127.951 47.7127 128.464 47.9207C128.977 48.1287 129.518 48.2327 130.087 48.2327C130.322 48.2327 130.53 48.205 130.711 48.1495C130.905 48.094 131.071 48.0108 131.21 47.8999C131.348 47.789 131.452 47.6642 131.522 47.5255C131.605 47.373 131.647 47.2066 131.647 47.0263C131.647 46.6935 131.522 46.43 131.272 46.2359C131.134 46.1388 130.912 46.0348 130.607 45.9239C130.315 45.813 129.934 45.702 129.463 45.5911C128.714 45.397 128.09 45.1751 127.591 44.9255C127.091 44.6621 126.703 44.3709 126.426 44.0519C126.19 43.7885 126.01 43.4903 125.885 43.1575C125.774 42.8247 125.719 42.4642 125.719 42.0759C125.719 41.5906 125.823 41.1538 126.031 40.7655C126.253 40.3634 126.551 40.0167 126.925 39.7255C127.299 39.4343 127.736 39.2125 128.235 39.06C128.735 38.9074 129.255 38.8312 129.795 38.8312C130.35 38.8312 130.884 38.9005 131.397 39.0392C131.924 39.1778 132.409 39.3789 132.853 39.6423C133.311 39.8919 133.699 40.197 134.018 40.5575L132.603 42.1175C132.34 41.8679 132.049 41.6461 131.73 41.4519C131.425 41.2578 131.113 41.1053 130.794 40.9943C130.475 40.8695 130.177 40.8071 129.899 40.8071C129.636 40.8071 129.4 40.8349 129.192 40.8903C128.984 40.9319 128.811 41.0013 128.672 41.0983C128.534 41.1954 128.423 41.3202 128.339 41.4727C128.27 41.6114 128.235 41.7778 128.235 41.9719C128.249 42.1383 128.291 42.2978 128.36 42.4503C128.443 42.589 128.554 42.7069 128.693 42.8039C128.846 42.901 129.074 43.0119 129.379 43.1367C129.685 43.2615 130.08 43.3794 130.565 43.4903C131.244 43.6706 131.813 43.8717 132.271 44.0935C132.728 44.3154 133.089 44.5719 133.352 44.8631C133.616 45.1127 133.803 45.4039 133.914 45.7367C134.025 46.0695 134.08 46.437 134.08 46.8391C134.08 47.4908 133.893 48.0732 133.519 48.5863C133.158 49.0994 132.659 49.5015 132.021 49.7927C131.397 50.0839 130.69 50.2295 129.899 50.2295ZM136.334 50.0215V34.6296H138.871V41.3063L138.393 41.5559C138.532 41.0567 138.802 40.6061 139.204 40.2039C139.606 39.7879 140.085 39.4551 140.639 39.2056C141.194 38.956 141.763 38.8312 142.345 38.8312C143.177 38.8312 143.87 38.9976 144.425 39.3304C144.994 39.6631 145.417 40.1623 145.694 40.8279C145.985 41.4935 146.131 42.3255 146.131 43.3239V50.0215H143.572V43.5111C143.572 42.9565 143.496 42.4989 143.343 42.1383C143.191 41.7639 142.955 41.4935 142.636 41.3271C142.317 41.1469 141.929 41.0637 141.471 41.0775C141.097 41.0775 140.75 41.1399 140.431 41.2647C140.126 41.3757 139.856 41.5421 139.62 41.7639C139.398 41.9719 139.218 42.2146 139.079 42.4919C138.955 42.7693 138.892 43.0743 138.892 43.4071V50.0215H137.624C137.374 50.0215 137.138 50.0215 136.916 50.0215C136.708 50.0215 136.514 50.0215 136.334 50.0215ZM154.53 50.0215V41.5282H155.816L158.91 46.5635L158.291 46.5514L161.422 41.5282H162.635V50.0215H161.325V46.5392C161.325 45.8112 161.341 45.156 161.373 44.5737C161.414 43.9913 161.478 43.4129 161.567 42.8386L161.737 43.2875L158.959 47.5827H158.158L155.464 43.3361L155.598 42.8386C155.687 43.3805 155.747 43.9387 155.78 44.513C155.82 45.0792 155.84 45.7546 155.84 46.5392V50.0215H154.53ZM167.637 50.1428C167.176 50.1428 166.747 50.0822 166.351 49.9608C165.963 49.8395 165.607 49.6575 165.283 49.4148C164.968 49.1641 164.685 48.8567 164.434 48.4927L165.332 47.4614C165.728 48.0276 166.108 48.4199 166.472 48.6383C166.836 48.8567 167.269 48.9659 167.77 48.9659C168.078 48.9659 168.357 48.9174 168.608 48.8203C168.858 48.7232 169.057 48.5898 169.202 48.4199C169.348 48.25 169.421 48.0559 169.421 47.8375C169.421 47.6919 169.396 47.5544 169.348 47.425C169.299 47.2955 169.222 47.1783 169.117 47.0731C169.02 46.9679 168.891 46.8709 168.729 46.7819C168.575 46.6929 168.393 46.6161 168.183 46.5514C167.973 46.4786 167.73 46.4179 167.455 46.3694C167.018 46.2804 166.638 46.1631 166.314 46.0175C165.991 45.8719 165.72 45.6899 165.502 45.4715C165.283 45.2531 165.121 45.0064 165.016 44.7314C164.911 44.4483 164.858 44.1328 164.858 43.785C164.858 43.4453 164.931 43.1298 165.077 42.8386C165.231 42.5474 165.437 42.2966 165.696 42.0863C165.963 41.8679 166.274 41.7021 166.63 41.5889C166.986 41.4675 167.37 41.4069 167.783 41.4069C168.219 41.4069 168.62 41.4635 168.984 41.5767C169.348 41.69 169.671 41.8598 169.954 42.0863C170.238 42.3047 170.472 42.5757 170.658 42.8993L169.736 43.8093C169.574 43.5423 169.392 43.3199 169.19 43.1419C168.988 42.9559 168.765 42.8184 168.523 42.7294C168.28 42.6323 168.021 42.5838 167.746 42.5838C167.431 42.5838 167.156 42.6323 166.921 42.7294C166.687 42.8265 166.501 42.964 166.363 43.1419C166.234 43.3118 166.169 43.514 166.169 43.7486C166.169 43.9185 166.201 44.0762 166.266 44.2218C166.331 44.3593 166.428 44.4847 166.557 44.5979C166.695 44.7031 166.877 44.8001 167.103 44.8891C167.33 44.97 167.601 45.0428 167.916 45.1075C168.361 45.2046 168.757 45.33 169.105 45.4836C169.453 45.6292 169.748 45.8032 169.991 46.0054C170.234 46.2076 170.416 46.4341 170.537 46.6848C170.666 46.9356 170.731 47.2066 170.731 47.4978C170.731 48.0397 170.606 48.5089 170.355 48.9052C170.104 49.3016 169.748 49.609 169.287 49.8274C168.826 50.0377 168.276 50.1428 167.637 50.1428Z" fill="black"/>
<rect x="241.416" y="24.6875" width="140.399" height="34.6665" rx="6.93329" fill="#DADADA"/>
<path d="M301.328 48.7434C300.484 48.7434 299.721 48.5643 299.04 48.2061C298.358 47.8363 297.792 47.3047 297.341 46.6114L298.589 45.2594C299.097 45.8256 299.554 46.2185 299.958 46.4381C300.363 46.6461 300.808 46.7501 301.293 46.7501C301.732 46.7501 302.125 46.6576 302.472 46.4728C302.818 46.2763 303.096 46.0163 303.304 45.6928C303.512 45.3576 303.616 44.9936 303.616 44.6008C303.616 44.1732 303.517 43.7977 303.321 43.4741C303.125 43.139 302.859 42.8732 302.524 42.6768C302.189 42.4803 301.807 42.3821 301.38 42.3821C301.149 42.3821 300.929 42.3994 300.721 42.4341C300.513 42.4688 300.27 42.5381 299.993 42.6421C299.727 42.7461 299.386 42.9079 298.97 43.1274L297.896 41.6714L298.606 36.4541H305.314V38.4475H299.872L300.374 37.8928L299.802 41.7408L299.161 41.2901C299.311 41.1514 299.531 41.0186 299.82 40.8915C300.12 40.7643 300.444 40.6603 300.79 40.5795C301.137 40.4986 301.478 40.4581 301.813 40.4581C302.564 40.4581 303.234 40.6315 303.824 40.9781C304.413 41.3248 304.881 41.8043 305.228 42.4168C305.574 43.0177 305.748 43.711 305.748 44.4968C305.748 45.2941 305.551 46.0163 305.158 46.6634C304.777 47.299 304.251 47.8074 303.581 48.1887C302.911 48.5585 302.16 48.7434 301.328 48.7434ZM312.198 48.7954C311.216 48.7954 310.372 48.547 309.667 48.0501C308.974 47.5416 308.436 46.8252 308.055 45.9008C307.685 44.9648 307.5 43.8497 307.5 42.5554C307.5 41.2612 307.685 40.1519 308.055 39.2275C308.436 38.2915 308.974 37.575 309.667 37.0781C310.372 36.5697 311.216 36.3155 312.198 36.3155C313.18 36.3155 314.024 36.5697 314.728 37.0781C315.433 37.575 315.971 38.2915 316.34 39.2275C316.722 40.1519 316.912 41.2612 316.912 42.5554C316.912 43.8497 316.722 44.9648 316.34 45.9008C315.971 46.8252 315.433 47.5416 314.728 48.0501C314.024 48.547 313.18 48.7954 312.198 48.7954ZM312.198 46.8194C313.007 46.8194 313.631 46.4496 314.07 45.7101C314.52 44.959 314.746 43.9074 314.746 42.5554C314.746 41.1919 314.52 40.1346 314.07 39.3835C313.631 38.6324 313.007 38.2568 312.198 38.2568C311.389 38.2568 310.759 38.6324 310.308 39.3835C309.869 40.1346 309.65 41.1919 309.65 42.5554C309.65 43.9074 309.869 44.959 310.308 45.7101C310.759 46.4496 311.389 46.8194 312.198 46.8194ZM323.133 48.7954C322.15 48.7954 321.307 48.547 320.602 48.0501C319.909 47.5416 319.371 46.8252 318.99 45.9008C318.62 44.9648 318.435 43.8497 318.435 42.5554C318.435 41.2612 318.62 40.1519 318.99 39.2275C319.371 38.2915 319.909 37.575 320.602 37.0781C321.307 36.5697 322.15 36.3155 323.133 36.3155C324.115 36.3155 324.958 36.5697 325.663 37.0781C326.368 37.575 326.905 38.2915 327.275 39.2275C327.657 40.1519 327.847 41.2612 327.847 42.5554C327.847 43.8497 327.657 44.9648 327.275 45.9008C326.905 46.8252 326.368 47.5416 325.663 48.0501C324.958 48.547 324.115 48.7954 323.133 48.7954ZM323.133 46.8194C323.942 46.8194 324.566 46.4496 325.005 45.7101C325.455 44.959 325.681 43.9074 325.681 42.5554C325.681 41.1919 325.455 40.1346 325.005 39.3835C324.566 38.6324 323.942 38.2568 323.133 38.2568C322.324 38.2568 321.694 38.6324 321.243 39.3835C320.804 40.1346 320.585 41.1919 320.585 42.5554C320.585 43.9074 320.804 44.959 321.243 45.7101C321.694 46.4496 322.324 46.8194 323.133 46.8194Z" fill="#1C1C1C"/>
<path d="M42.1924 31.6221C37.7637 31.6221 34.0605 34.3607 32.5508 38.2304L34.1489 38.8804C35.4116 35.6434 38.4744 33.3554 42.1924 33.3554C45.0004 33.3554 47.5085 34.7334 49.0719 36.822H45.659V38.5554H51.7257V32.4887H49.9923V35.1702C49.0215 34.0555 47.8229 33.162 46.4773 32.5499C45.1318 31.9378 43.6706 31.6214 42.1924 31.6221ZM50.235 45.1637C48.9731 48.4006 45.9104 50.6886 42.1924 50.6886C39.3532 50.6886 36.8564 49.2916 35.2851 47.222H38.7257V45.4887H32.6591V51.5553H34.3924V48.8738C36.2904 51.0232 39.0681 52.4219 42.1924 52.4219C46.621 52.4219 50.3243 49.6833 51.834 45.8137L50.2359 45.1637H50.235Z" fill="black" stroke="black"/>
<defs>
<linearGradient id="paint0_linear" x1="0" y1="41.9012" x2="424.61" y2="41.9012" gradientUnits="userSpaceOnUse">
<stop stop-color="#1FA2FF"/>
<stop offset="0.5" stop-color="#12D8FA"/>
<stop offset="1" stop-color="#A6FFCB"/>
</linearGradient>
</defs>
</svg>
