<svg width="425" height="84" viewBox="0 0 425 84" fill="none" xmlns="http://www.w3.org/2000/svg">
<rect x="1" y="1" width="422.61" height="81.8025" rx="15" fill="white" stroke="url(#paint0_linear)" stroke-width="2"/>
<path d="M71.7716 50.0215V35.4616H78.0948C78.9684 35.4616 79.7657 35.6696 80.4867 36.0856C81.2078 36.4877 81.7763 37.0424 82.1923 37.7496C82.6222 38.4429 82.8371 39.2264 82.8371 40.0999C82.8371 40.9319 82.6222 41.7015 82.1923 42.4087C81.7763 43.1021 81.2078 43.6567 80.4867 44.0727C79.7795 44.4749 78.9822 44.6759 78.0948 44.6759H74.4132V50.0215H71.7716ZM80.2163 50.0215L76.514 43.4487L79.3011 42.9287L83.4195 50.0423L80.2163 50.0215ZM74.4132 42.3255H78.1156C78.5177 42.3255 78.8644 42.2354 79.1555 42.0551C79.4606 41.861 79.6963 41.5975 79.8627 41.2647C80.0291 40.9319 80.1123 40.5645 80.1123 40.1623C80.1123 39.7047 80.0083 39.3096 79.8003 38.9768C79.5923 38.644 79.3011 38.3805 78.9268 38.1864C78.5524 37.9922 78.1225 37.8952 77.6372 37.8952H74.4132V42.3255ZM89.55 50.2295C88.6486 50.2295 87.8305 49.9799 87.0956 49.4807C86.3606 48.9815 85.7713 48.302 85.3276 47.4423C84.8839 46.5826 84.662 45.605 84.662 44.5095C84.662 43.4141 84.8839 42.4365 85.3276 41.5767C85.7713 40.717 86.3745 40.0445 87.1372 39.5591C87.8998 39.0738 88.7596 38.8312 89.7164 38.8312C90.271 38.8312 90.7772 38.9144 91.2347 39.0808C91.6923 39.2333 92.0945 39.4551 92.4411 39.7463C92.7878 40.0375 93.0721 40.3703 93.2939 40.7447C93.5297 41.1191 93.6891 41.5213 93.7723 41.9511L93.2107 41.8055V39.06H95.7899V50.0215H93.1899V47.4007L93.7931 47.2967C93.6961 47.6711 93.5158 48.0386 93.2523 48.3991C93.0027 48.7458 92.6838 49.0578 92.2955 49.3351C91.9211 49.5986 91.4982 49.8135 91.0267 49.9799C90.5692 50.1463 90.0769 50.2295 89.55 50.2295ZM90.2572 47.9623C90.8534 47.9623 91.3803 47.8167 91.8379 47.5255C92.2955 47.2343 92.6491 46.8322 92.8987 46.3191C93.1622 45.7922 93.2939 45.189 93.2939 44.5095C93.2939 43.8439 93.1622 43.2546 92.8987 42.7415C92.6491 42.2285 92.2955 41.8263 91.8379 41.5351C91.3803 41.2439 90.8534 41.0983 90.2572 41.0983C89.6609 41.0983 89.134 41.2439 88.6764 41.5351C88.2326 41.8263 87.886 42.2285 87.6364 42.7415C87.3868 43.2546 87.262 43.8439 87.262 44.5095C87.262 45.189 87.3868 45.7922 87.6364 46.3191C87.886 46.8322 88.2326 47.2343 88.6764 47.5255C89.134 47.8167 89.6609 47.9623 90.2572 47.9623ZM98.756 50.0215V39.06H101.252L101.294 41.3063L100.815 41.5559C100.954 41.0567 101.224 40.6061 101.626 40.2039C102.029 39.7879 102.507 39.4551 103.062 39.2056C103.616 38.956 104.185 38.8312 104.767 38.8312C105.599 38.8312 106.293 38.9976 106.847 39.3304C107.416 39.6631 107.839 40.1623 108.116 40.8279C108.407 41.4935 108.553 42.3255 108.553 43.3239V50.0215H105.994V43.5111C105.994 42.9565 105.918 42.4989 105.766 42.1383C105.613 41.7639 105.377 41.4935 105.058 41.3271C104.739 41.1469 104.351 41.0637 103.894 41.0775C103.519 41.0775 103.173 41.1399 102.854 41.2647C102.549 41.3757 102.278 41.5421 102.042 41.7639C101.821 41.9719 101.64 42.2146 101.502 42.4919C101.377 42.7693 101.314 43.0743 101.314 43.4071V50.0215H100.046C99.796 50.0215 99.5603 50.0215 99.3384 50.0215C99.1304 50.0215 98.9363 50.0215 98.756 50.0215ZM115.841 50.2295C114.87 50.2295 113.996 49.9868 113.22 49.5015C112.457 49.0023 111.847 48.3298 111.389 47.4839C110.946 46.6242 110.724 45.6396 110.724 44.5303C110.724 43.4349 110.946 42.4573 111.389 41.5975C111.833 40.7378 112.436 40.0653 113.199 39.5799C113.975 39.0808 114.849 38.8312 115.82 38.8312C116.347 38.8312 116.853 38.9144 117.338 39.0808C117.837 39.2472 118.281 39.4759 118.669 39.7671C119.058 40.0445 119.363 40.3565 119.584 40.7031C119.82 41.0498 119.952 41.4103 119.98 41.7847L119.293 41.8679V34.6296H121.852V50.0215H119.376L119.314 47.4423L119.813 47.4839C119.799 47.8306 119.675 48.1634 119.439 48.4823C119.217 48.8012 118.926 49.0924 118.565 49.3559C118.205 49.6194 117.782 49.8343 117.297 50.0007C116.825 50.1532 116.34 50.2295 115.841 50.2295ZM116.34 48.0663C116.936 48.0663 117.463 47.9138 117.92 47.6087C118.378 47.3036 118.732 46.8876 118.981 46.3607C119.245 45.8338 119.376 45.2236 119.376 44.5303C119.376 43.8509 119.245 43.2477 118.981 42.7207C118.732 42.1799 118.378 41.7639 117.92 41.4727C117.463 41.1677 116.936 41.0151 116.34 41.0151C115.743 41.0151 115.217 41.1677 114.759 41.4727C114.301 41.7639 113.941 42.1799 113.677 42.7207C113.428 43.2477 113.303 43.8509 113.303 44.5303C113.303 45.2236 113.428 45.8338 113.677 46.3607C113.941 46.8876 114.301 47.3036 114.759 47.6087C115.217 47.9138 115.743 48.0663 116.34 48.0663ZM129.769 50.2295C128.673 50.2295 127.696 49.9868 126.836 49.5015C125.976 49.0023 125.297 48.3228 124.797 47.4631C124.298 46.6034 124.049 45.6258 124.049 44.5303C124.049 43.4349 124.298 42.4573 124.797 41.5975C125.297 40.7378 125.976 40.0653 126.836 39.5799C127.696 39.0808 128.673 38.8312 129.769 38.8312C130.85 38.8312 131.821 39.0808 132.681 39.5799C133.54 40.0653 134.213 40.7378 134.698 41.5975C135.197 42.4573 135.447 43.4349 135.447 44.5303C135.447 45.6258 135.197 46.6034 134.698 47.4631C134.213 48.3228 133.54 49.0023 132.681 49.5015C131.821 49.9868 130.85 50.2295 129.769 50.2295ZM129.769 47.9623C130.365 47.9623 130.892 47.8098 131.349 47.5047C131.821 47.1996 132.188 46.7906 132.452 46.2775C132.729 45.7644 132.861 45.182 132.847 44.5303C132.861 43.8647 132.729 43.2754 132.452 42.7623C132.188 42.2493 131.821 41.8471 131.349 41.5559C130.892 41.2509 130.365 41.0983 129.769 41.0983C129.172 41.0983 128.632 41.2509 128.146 41.5559C127.675 41.8471 127.307 42.2562 127.044 42.7831C126.78 43.2962 126.649 43.8786 126.649 44.5303C126.649 45.182 126.78 45.7644 127.044 46.2775C127.307 46.7906 127.675 47.1996 128.146 47.5047C128.632 47.8098 129.172 47.9623 129.769 47.9623ZM137.694 50.0215V39.06H140.211L140.252 41.2647L139.836 41.4311C139.961 41.0706 140.148 40.7378 140.398 40.4327C140.647 40.1138 140.946 39.8434 141.292 39.6215C141.639 39.3858 142.006 39.2056 142.395 39.0808C142.783 38.9421 143.178 38.8728 143.58 38.8728C144.176 38.8728 144.703 38.9698 145.161 39.164C145.632 39.3442 146.021 39.6354 146.326 40.0375C146.645 40.4397 146.88 40.9527 147.033 41.5767L146.638 41.4935L146.804 41.1607C146.957 40.8279 147.172 40.5298 147.449 40.2663C147.726 39.989 148.038 39.7463 148.385 39.5383C148.732 39.3165 149.092 39.1501 149.467 39.0392C149.855 38.9282 150.236 38.8728 150.611 38.8728C151.443 38.8728 152.136 39.0392 152.691 39.3719C153.245 39.7047 153.661 40.2109 153.939 40.8903C154.216 41.5698 154.355 42.4087 154.355 43.4071V50.0215H151.775V43.5735C151.775 43.0189 151.699 42.5613 151.547 42.2007C151.408 41.8402 151.186 41.5767 150.881 41.4103C150.59 41.2301 150.222 41.1399 149.779 41.1399C149.432 41.1399 149.099 41.2023 148.78 41.3271C148.475 41.4381 148.212 41.6045 147.99 41.8263C147.768 42.0343 147.595 42.277 147.47 42.5543C147.345 42.8317 147.283 43.1367 147.283 43.4695V50.0215H144.703V43.5527C144.703 43.0258 144.627 42.589 144.475 42.2423C144.322 41.8818 144.1 41.6114 143.809 41.4311C143.518 41.237 143.164 41.1399 142.748 41.1399C142.402 41.1399 142.076 41.2023 141.771 41.3271C141.466 41.4381 141.202 41.5975 140.98 41.8055C140.758 42.0135 140.585 42.2562 140.46 42.5335C140.335 42.8109 140.273 43.1159 140.273 43.4487V50.0215H137.694ZM157.486 50.0215V39.06H160.044V50.0215H157.486ZM158.734 36.7304C158.221 36.7304 157.819 36.6056 157.528 36.356C157.25 36.0925 157.112 35.725 157.112 35.2536C157.112 34.8098 157.257 34.4493 157.548 34.172C157.84 33.8946 158.235 33.756 158.734 33.756C159.261 33.756 159.663 33.8877 159.94 34.1512C160.232 34.4008 160.377 34.7682 160.377 35.2536C160.377 35.6834 160.232 36.037 159.94 36.3144C159.649 36.5917 159.247 36.7304 158.734 36.7304ZM162.831 50.0215V48.1911L168.551 40.6615V41.2023H162.831V39.06H171.213V40.8903L165.66 48.2743L165.576 47.8791H171.359V50.0215H162.831ZM178.765 50.2295C177.614 50.2295 176.595 49.9868 175.707 49.5015C174.834 49.0162 174.147 48.3575 173.648 47.5255C173.163 46.6796 172.92 45.7159 172.92 44.6343C172.92 43.7746 173.059 42.9911 173.336 42.2839C173.614 41.5767 173.995 40.9666 174.48 40.4535C174.979 39.9266 175.569 39.5245 176.248 39.2472C176.942 38.956 177.697 38.8104 178.515 38.8104C179.236 38.8104 179.909 38.949 180.533 39.2263C181.157 39.5037 181.698 39.885 182.155 40.3703C182.613 40.8418 182.96 41.4103 183.195 42.0759C183.445 42.7277 183.563 43.4418 183.549 44.2183L183.528 45.1127H174.647L174.168 43.3655H181.386L181.053 43.7191V43.2615C181.011 42.8317 180.873 42.4573 180.637 42.1383C180.401 41.8055 180.096 41.549 179.722 41.3687C179.361 41.1746 178.959 41.0775 178.515 41.0775C177.836 41.0775 177.26 41.2093 176.789 41.4727C176.331 41.7362 175.985 42.1175 175.749 42.6167C175.513 43.1021 175.395 43.7122 175.395 44.4471C175.395 45.1543 175.541 45.7714 175.832 46.2983C176.137 46.8252 176.56 47.2343 177.101 47.5255C177.656 47.8028 178.3 47.9415 179.035 47.9415C179.548 47.9415 180.02 47.8583 180.45 47.6919C180.88 47.5255 181.344 47.2274 181.843 46.7975L183.112 48.5655C182.738 48.9122 182.308 49.2103 181.823 49.4599C181.351 49.6956 180.852 49.8828 180.325 50.0215C179.798 50.1602 179.278 50.2295 178.765 50.2295ZM185.815 50.0215V39.06H188.332L188.373 42.5543L188.02 41.7639C188.172 41.2093 188.436 40.7101 188.81 40.2663C189.184 39.8226 189.614 39.4759 190.1 39.2263C190.599 38.9629 191.119 38.8312 191.66 38.8312C191.895 38.8312 192.117 38.852 192.325 38.8936C192.547 38.9352 192.727 38.9837 192.866 39.0392L192.18 41.8471C192.027 41.7639 191.84 41.6946 191.618 41.6391C191.396 41.5837 191.174 41.5559 190.952 41.5559C190.606 41.5559 190.273 41.6253 189.954 41.7639C189.649 41.8887 189.379 42.069 189.143 42.3047C188.907 42.5405 188.72 42.8178 188.581 43.1367C188.456 43.4418 188.394 43.7885 188.394 44.1767V50.0215H185.815ZM200.091 50.0215V41.5282H201.377L204.471 46.5635L203.852 46.5514L206.982 41.5282H208.196V50.0215H206.885V46.5392C206.885 45.8112 206.901 45.156 206.934 44.5737C206.974 43.9913 207.039 43.4129 207.128 42.8386L207.298 43.2875L204.519 47.5827H203.718L201.025 43.3361L201.158 42.8386C201.247 43.3805 201.308 43.9387 201.34 44.513C201.381 45.0792 201.401 45.7546 201.401 46.5392V50.0215H200.091ZM213.198 50.1428C212.737 50.1428 212.308 50.0822 211.912 49.9608C211.523 49.8395 211.167 49.6575 210.844 49.4148C210.528 49.1641 210.245 48.8567 209.994 48.4927L210.892 47.4614C211.289 48.0276 211.669 48.4199 212.033 48.6383C212.397 48.8567 212.83 48.9659 213.331 48.9659C213.639 48.9659 213.918 48.9174 214.168 48.8203C214.419 48.7232 214.617 48.5898 214.763 48.4199C214.908 48.25 214.981 48.0559 214.981 47.8375C214.981 47.6919 214.957 47.5544 214.908 47.425C214.86 47.2955 214.783 47.1783 214.678 47.0731C214.581 46.9679 214.451 46.8709 214.29 46.7819C214.136 46.6929 213.954 46.6161 213.744 46.5514C213.533 46.4786 213.291 46.4179 213.016 46.3694C212.579 46.2804 212.199 46.1631 211.875 46.0175C211.552 45.8719 211.281 45.6899 211.062 45.4715C210.844 45.2531 210.682 45.0064 210.577 44.7314C210.472 44.4483 210.419 44.1328 210.419 43.785C210.419 43.4453 210.492 43.1298 210.638 42.8386C210.791 42.5474 210.997 42.2966 211.256 42.0863C211.523 41.8679 211.835 41.7021 212.191 41.5889C212.547 41.4675 212.931 41.4069 213.343 41.4069C213.78 41.4069 214.18 41.4635 214.544 41.5767C214.908 41.69 215.232 41.8598 215.515 42.0863C215.798 42.3047 216.033 42.5757 216.219 42.8993L215.297 43.8093C215.135 43.5423 214.953 43.3199 214.751 43.1419C214.548 42.9559 214.326 42.8184 214.083 42.7294C213.841 42.6323 213.582 42.5838 213.307 42.5838C212.991 42.5838 212.716 42.6323 212.482 42.7294C212.247 42.8265 212.061 42.964 211.924 43.1419C211.794 43.3118 211.73 43.514 211.73 43.7486C211.73 43.9185 211.762 44.0762 211.827 44.2218C211.891 44.3593 211.988 44.4847 212.118 44.5979C212.255 44.7031 212.437 44.8001 212.664 44.8891C212.89 44.97 213.161 45.0428 213.477 45.1075C213.922 45.2046 214.318 45.33 214.666 45.4836C215.014 45.6292 215.309 45.8032 215.552 46.0054C215.794 46.2076 215.976 46.4341 216.098 46.6848C216.227 46.9356 216.292 47.2066 216.292 47.4978C216.292 48.0397 216.166 48.5089 215.916 48.9052C215.665 49.3016 215.309 49.609 214.848 49.8274C214.387 50.0377 213.837 50.1428 213.198 50.1428Z" fill="black"/>
<rect x="241.416" y="24.6875" width="140.399" height="34.6665" rx="6.93329" fill="#DADADA"/>
<path d="M301.328 48.7434C300.484 48.7434 299.721 48.5643 299.04 48.2061C298.358 47.8363 297.792 47.3047 297.341 46.6114L298.589 45.2594C299.097 45.8256 299.554 46.2185 299.958 46.4381C300.363 46.6461 300.808 46.7501 301.293 46.7501C301.732 46.7501 302.125 46.6576 302.472 46.4728C302.818 46.2763 303.096 46.0163 303.304 45.6928C303.512 45.3576 303.616 44.9936 303.616 44.6008C303.616 44.1732 303.517 43.7977 303.321 43.4741C303.125 43.139 302.859 42.8732 302.524 42.6768C302.189 42.4803 301.807 42.3821 301.38 42.3821C301.149 42.3821 300.929 42.3994 300.721 42.4341C300.513 42.4688 300.27 42.5381 299.993 42.6421C299.727 42.7461 299.386 42.9079 298.97 43.1274L297.896 41.6714L298.606 36.4541H305.314V38.4475H299.872L300.374 37.8928L299.802 41.7408L299.161 41.2901C299.311 41.1514 299.531 41.0186 299.82 40.8915C300.12 40.7643 300.444 40.6603 300.79 40.5795C301.137 40.4986 301.478 40.4581 301.813 40.4581C302.564 40.4581 303.234 40.6315 303.824 40.9781C304.413 41.3248 304.881 41.8043 305.228 42.4168C305.574 43.0177 305.748 43.711 305.748 44.4968C305.748 45.2941 305.551 46.0163 305.158 46.6634C304.777 47.299 304.251 47.8074 303.581 48.1887C302.911 48.5585 302.16 48.7434 301.328 48.7434ZM312.198 48.7954C311.216 48.7954 310.372 48.547 309.667 48.0501C308.974 47.5416 308.436 46.8252 308.055 45.9008C307.685 44.9648 307.5 43.8497 307.5 42.5554C307.5 41.2612 307.685 40.1519 308.055 39.2275C308.436 38.2915 308.974 37.575 309.667 37.0781C310.372 36.5697 311.216 36.3155 312.198 36.3155C313.18 36.3155 314.024 36.5697 314.728 37.0781C315.433 37.575 315.971 38.2915 316.34 39.2275C316.722 40.1519 316.912 41.2612 316.912 42.5554C316.912 43.8497 316.722 44.9648 316.34 45.9008C315.971 46.8252 315.433 47.5416 314.728 48.0501C314.024 48.547 313.18 48.7954 312.198 48.7954ZM312.198 46.8194C313.007 46.8194 313.631 46.4496 314.07 45.7101C314.52 44.959 314.746 43.9074 314.746 42.5554C314.746 41.1919 314.52 40.1346 314.07 39.3835C313.631 38.6324 313.007 38.2568 312.198 38.2568C311.389 38.2568 310.759 38.6324 310.308 39.3835C309.869 40.1346 309.65 41.1919 309.65 42.5554C309.65 43.9074 309.869 44.959 310.308 45.7101C310.759 46.4496 311.389 46.8194 312.198 46.8194ZM323.133 48.7954C322.15 48.7954 321.307 48.547 320.602 48.0501C319.909 47.5416 319.371 46.8252 318.99 45.9008C318.62 44.9648 318.435 43.8497 318.435 42.5554C318.435 41.2612 318.62 40.1519 318.99 39.2275C319.371 38.2915 319.909 37.575 320.602 37.0781C321.307 36.5697 322.15 36.3155 323.133 36.3155C324.115 36.3155 324.958 36.5697 325.663 37.0781C326.368 37.575 326.905 38.2915 327.275 39.2275C327.657 40.1519 327.847 41.2612 327.847 42.5554C327.847 43.8497 327.657 44.9648 327.275 45.9008C326.905 46.8252 326.368 47.5416 325.663 48.0501C324.958 48.547 324.115 48.7954 323.133 48.7954ZM323.133 46.8194C323.942 46.8194 324.565 46.4496 325.005 45.7101C325.455 44.959 325.681 43.9074 325.681 42.5554C325.681 41.1919 325.455 40.1346 325.005 39.3835C324.565 38.6324 323.942 38.2568 323.133 38.2568C322.324 38.2568 321.694 38.6324 321.243 39.3835C320.804 40.1346 320.585 41.1919 320.585 42.5554C320.585 43.9074 320.804 44.959 321.243 45.7101C321.694 46.4496 322.324 46.8194 323.133 46.8194Z" fill="#1C1C1C"/>
<path d="M38.8647 40.138C39.0412 40.3133 39.2798 40.4118 39.5285 40.4118C39.7773 40.4118 40.0159 40.3133 40.1924 40.138C40.3677 39.9615 40.4662 39.7229 40.4662 39.4741C40.4662 39.2254 40.3677 38.9868 40.1924 38.8103L34.2887 32.8785C34.1114 32.7012 33.871 32.6016 33.6202 32.6016C33.3695 32.6016 33.129 32.7012 32.9517 32.8785C32.7744 33.0558 32.6748 33.2962 32.6748 33.547C32.6748 33.7977 32.7744 34.0382 32.9517 34.2155L38.8647 40.138ZM50.446 43.9042C50.1963 43.9042 49.9568 44.0034 49.7802 44.18C49.6037 44.3566 49.5045 44.5961 49.5045 44.8458V48.226L45.2109 43.9042C45.0311 43.7244 44.7872 43.6234 44.533 43.6234C44.2787 43.6234 44.0348 43.7244 43.855 43.9042C43.6753 44.084 43.5742 44.3279 43.5742 44.5822C43.5742 44.8364 43.6753 45.0803 43.855 45.2601L48.1768 49.5536H44.7966C44.5469 49.5536 44.3074 49.6528 44.1308 49.8294C43.9542 50.006 43.855 50.2455 43.855 50.4952C43.855 50.7449 43.9542 50.9844 44.1308 51.161C44.3074 51.3376 44.5469 51.4368 44.7966 51.4368H50.446C50.5691 51.4353 50.6906 51.4097 50.8038 51.3614C51.0339 51.2659 51.2167 51.0831 51.3123 50.853C51.3605 50.7398 51.3861 50.6182 51.3876 50.4952V44.8458C51.3876 44.5961 51.2884 44.3566 51.1118 44.18C50.9352 44.0034 50.6957 43.9042 50.446 43.9042ZM51.3123 33.1892C51.2167 32.9591 51.0339 32.7763 50.8038 32.6807C50.6906 32.6325 50.5691 32.6069 50.446 32.6054H44.7966C44.5469 32.6054 44.3074 32.7046 44.1308 32.8812C43.9542 33.0578 43.855 33.2973 43.855 33.547C43.855 33.7967 43.9542 34.0362 44.1308 34.2128C44.3074 34.3893 44.5469 34.4885 44.7966 34.4885H48.1768L32.8293 49.8267C32.741 49.9142 32.671 50.0183 32.6232 50.1331C32.5754 50.2478 32.5508 50.3709 32.5508 50.4952C32.5508 50.6195 32.5754 50.7426 32.6232 50.8573C32.671 50.972 32.741 51.0762 32.8293 51.1637C32.9168 51.252 33.021 51.322 33.1357 51.3698C33.2504 51.4176 33.3735 51.4422 33.4978 51.4422C33.6221 51.4422 33.7452 51.4176 33.8599 51.3698C33.9747 51.322 34.0788 51.252 34.1663 51.1637L49.5045 35.8162V39.1964C49.5045 39.4461 49.6037 39.6856 49.7802 39.8622C49.9568 40.0388 50.1963 40.138 50.446 40.138C50.6957 40.138 50.9352 40.0388 51.1118 39.8622C51.2884 39.6856 51.3876 39.4461 51.3876 39.1964V33.547C51.3861 33.4239 51.3605 33.3024 51.3123 33.1892Z" fill="black" stroke="black"/>
<defs>
<linearGradient id="paint0_linear" x1="0" y1="41.9012" x2="424.61" y2="41.9012" gradientUnits="userSpaceOnUse">
<stop stop-color="#1FA2FF"/>
<stop offset="0.5" stop-color="#12D8FA"/>
<stop offset="1" stop-color="#A6FFCB"/>
</linearGradient>
</defs>
</svg>
