<svg width="425" height="84" viewBox="0 0 425 84" fill="none" xmlns="http://www.w3.org/2000/svg">
<rect x="1" y="1" width="422.61" height="81.8025" rx="15" fill="white" stroke="url(#paint0_linear)" stroke-width="2"/>
<path d="M71.7716 50.0215V35.4616H77.8244C78.6564 35.4616 79.4051 35.6626 80.0707 36.0648C80.7502 36.4669 81.291 37.0146 81.6931 37.708C82.0953 38.4013 82.2963 39.1778 82.2963 40.0375C82.2963 40.9111 82.0953 41.7015 81.6931 42.4087C81.291 43.1021 80.7502 43.6567 80.0707 44.0727C79.4051 44.4887 78.6564 44.6967 77.8244 44.6967H74.4756V50.0215H71.7716ZM74.4756 42.2007H77.6372C77.9838 42.2007 78.2958 42.1037 78.5732 41.9095C78.8644 41.7154 79.0931 41.4589 79.2595 41.1399C79.4398 40.821 79.5299 40.4605 79.5299 40.0583C79.5299 39.6562 79.4398 39.3026 79.2595 38.9976C79.0931 38.6786 78.8644 38.429 78.5732 38.2488C78.2958 38.0546 77.9838 37.9576 77.6372 37.9576H74.4756V42.2007ZM88.6359 50.2295C87.7346 50.2295 86.9164 49.9799 86.1815 49.4807C85.4466 48.9815 84.8573 48.302 84.4135 47.4423C83.9698 46.5826 83.7479 45.605 83.7479 44.5095C83.7479 43.4141 83.9698 42.4365 84.4135 41.5767C84.8573 40.717 85.4605 40.0445 86.2231 39.5591C86.9858 39.0738 87.8455 38.8312 88.8023 38.8312C89.357 38.8312 89.8631 38.9144 90.3207 39.0808C90.7783 39.2333 91.1804 39.4551 91.5271 39.7463C91.8737 40.0375 92.158 40.3703 92.3799 40.7447C92.6156 41.1191 92.7751 41.5213 92.8583 41.9511L92.2967 41.8055V39.06H94.8759V50.0215H92.2759V47.4007L92.8791 47.2967C92.782 47.6711 92.6017 48.0386 92.3383 48.3991C92.0887 48.7458 91.7697 49.0578 91.3815 49.3351C91.0071 49.5986 90.5842 49.8135 90.1127 49.9799C89.6551 50.1463 89.1628 50.2295 88.6359 50.2295ZM89.3431 47.9623C89.9394 47.9623 90.4663 47.8167 90.9239 47.5255C91.3815 47.2343 91.7351 46.8322 91.9847 46.3191C92.2481 45.7922 92.3799 45.189 92.3799 44.5095C92.3799 43.8439 92.2481 43.2546 91.9847 42.7415C91.7351 42.2285 91.3815 41.8263 90.9239 41.5351C90.4663 41.2439 89.9394 41.0983 89.3431 41.0983C88.7468 41.0983 88.2199 41.2439 87.7623 41.5351C87.3186 41.8263 86.9719 42.2285 86.7223 42.7415C86.4727 43.2546 86.3479 43.8439 86.3479 44.5095C86.3479 45.189 86.4727 45.7922 86.7223 46.3191C86.9719 46.8322 87.3186 47.2343 87.7623 47.5255C88.2199 47.8167 88.7468 47.9623 89.3431 47.9623ZM99.2622 54.8055L101.592 49.4183L101.613 51.1239L96.2046 39.06H99.1582L102.174 46.2151C102.271 46.3954 102.368 46.638 102.465 46.9431C102.562 47.2343 102.646 47.5255 102.715 47.8167L102.195 47.9831C102.292 47.7196 102.396 47.4423 102.507 47.1511C102.618 46.846 102.722 46.534 102.819 46.2151L105.398 39.06H108.373L103.797 50.0215L101.925 54.8055H99.2622ZM114.778 50.2295C113.683 50.2295 112.705 49.9868 111.845 49.5015C110.986 49.0023 110.306 48.3228 109.807 47.4631C109.308 46.6034 109.058 45.6258 109.058 44.5303C109.058 43.4349 109.308 42.4573 109.807 41.5975C110.306 40.7378 110.986 40.0653 111.845 39.5799C112.705 39.0808 113.683 38.8312 114.778 38.8312C115.86 38.8312 116.83 39.0808 117.69 39.5799C118.55 40.0653 119.222 40.7378 119.708 41.5975C120.207 42.4573 120.456 43.4349 120.456 44.5303C120.456 45.6258 120.207 46.6034 119.708 47.4631C119.222 48.3228 118.55 49.0023 117.69 49.5015C116.83 49.9868 115.86 50.2295 114.778 50.2295ZM114.778 47.9623C115.374 47.9623 115.901 47.8098 116.359 47.5047C116.83 47.1996 117.198 46.7906 117.461 46.2775C117.739 45.7644 117.87 45.182 117.856 44.5303C117.87 43.8647 117.739 43.2754 117.461 42.7623C117.198 42.2493 116.83 41.8471 116.359 41.5559C115.901 41.2509 115.374 41.0983 114.778 41.0983C114.182 41.0983 113.641 41.2509 113.156 41.5559C112.684 41.8471 112.317 42.2562 112.053 42.7831C111.79 43.2962 111.658 43.8786 111.658 44.5303C111.658 45.182 111.79 45.7644 112.053 46.2775C112.317 46.7906 112.684 47.1996 113.156 47.5047C113.641 47.8098 114.182 47.9623 114.778 47.9623ZM126.551 50.2295C125.761 50.2295 125.075 50.0562 124.492 49.7095C123.91 49.349 123.466 48.8428 123.161 48.1911C122.856 47.5255 122.703 46.7351 122.703 45.8199V39.06H125.262V45.2791C125.262 45.8615 125.352 46.3607 125.532 46.7767C125.712 47.1788 125.976 47.4908 126.323 47.7127C126.669 47.9346 127.085 48.0455 127.57 48.0455C127.931 48.0455 128.257 47.99 128.548 47.8791C128.853 47.7543 129.117 47.5879 129.338 47.3799C129.56 47.158 129.734 46.9015 129.858 46.6103C129.983 46.3052 130.046 45.9794 130.046 45.6327V39.06H132.604V50.0215H130.108L130.066 47.7335L130.524 47.4839C130.358 48.0108 130.073 48.4823 129.671 48.8983C129.283 49.3004 128.818 49.6263 128.278 49.8759C127.737 50.1116 127.161 50.2295 126.551 50.2295ZM136.788 50.0215V36.2728H139.347V50.0215H136.788ZM134.625 41.4311V39.06H141.739V41.4311H134.625ZM152.459 50.0935C151.811 50.0935 151.231 49.9535 150.719 49.6735C150.207 49.3855 149.803 48.9935 149.507 48.4975C149.219 47.9935 149.075 47.4255 149.075 46.7935V41.6095H150.371V46.6855C150.371 47.0935 150.467 47.4615 150.659 47.7895C150.851 48.1095 151.103 48.3655 151.415 48.5575C151.735 48.7495 152.083 48.8455 152.459 48.8455C152.859 48.8455 153.219 48.7495 153.539 48.5575C153.867 48.3655 154.127 48.1095 154.319 47.7895C154.511 47.4615 154.607 47.0935 154.607 46.6855V41.6095H155.843V46.7935C155.843 47.4255 155.695 47.9935 155.399 48.4975C155.111 48.9935 154.711 49.3855 154.199 49.6735C153.687 49.9535 153.107 50.0935 152.459 50.0935ZM160.712 50.1428C160.251 50.1428 159.822 50.0822 159.426 49.9608C159.037 49.8395 158.681 49.6575 158.358 49.4148C158.042 49.1641 157.759 48.8567 157.509 48.4927L158.406 47.4614C158.803 48.0276 159.183 48.4199 159.547 48.6383C159.911 48.8567 160.344 48.9659 160.845 48.9659C161.153 48.9659 161.432 48.9174 161.682 48.8203C161.933 48.7232 162.131 48.5898 162.277 48.4199C162.422 48.25 162.495 48.0559 162.495 47.8375C162.495 47.6919 162.471 47.5544 162.422 47.425C162.374 47.2955 162.297 47.1783 162.192 47.0731C162.095 46.9679 161.965 46.8709 161.804 46.7819C161.65 46.6929 161.468 46.6161 161.258 46.5514C161.047 46.4786 160.805 46.4179 160.53 46.3694C160.093 46.2804 159.713 46.1631 159.389 46.0175C159.066 45.8719 158.795 45.6899 158.576 45.4715C158.358 45.2531 158.196 45.0064 158.091 44.7314C157.986 44.4483 157.933 44.1328 157.933 43.785C157.933 43.4453 158.006 43.1298 158.152 42.8386C158.305 42.5474 158.512 42.2966 158.77 42.0863C159.037 41.8679 159.349 41.7021 159.705 41.5889C160.061 41.4675 160.445 41.4069 160.857 41.4069C161.294 41.4069 161.695 41.4635 162.058 41.5767C162.422 41.69 162.746 41.8598 163.029 42.0863C163.312 42.3047 163.547 42.5757 163.733 42.8993L162.811 43.8093C162.649 43.5423 162.467 43.3199 162.265 43.1419C162.063 42.9559 161.84 42.8184 161.597 42.7294C161.355 42.6323 161.096 42.5838 160.821 42.5838C160.505 42.5838 160.23 42.6323 159.996 42.7294C159.761 42.8265 159.575 42.964 159.438 43.1419C159.308 43.3118 159.244 43.514 159.244 43.7486C159.244 43.9185 159.276 44.0762 159.341 44.2218C159.405 44.3593 159.502 44.4847 159.632 44.5979C159.769 44.7031 159.951 44.8001 160.178 44.8891C160.404 44.97 160.675 45.0428 160.991 45.1075C161.436 45.2046 161.832 45.33 162.18 45.4836C162.528 45.6292 162.823 45.8032 163.066 46.0054C163.308 46.2076 163.49 46.4341 163.612 46.6848C163.741 46.9356 163.806 47.2066 163.806 47.4978C163.806 48.0397 163.68 48.5089 163.43 48.9052C163.179 49.3016 162.823 49.609 162.362 49.8274C161.901 50.0377 161.351 50.1428 160.712 50.1428ZM165.662 50.0215V41.5282H168.987C169.594 41.5282 170.14 41.6293 170.625 41.8315C171.118 42.0338 171.539 42.325 171.887 42.7051C172.235 43.0853 172.501 43.5342 172.688 44.0519C172.874 44.5696 172.967 45.1439 172.967 45.7748C172.967 46.4058 172.874 46.9841 172.688 47.5099C172.501 48.0276 172.235 48.4765 171.887 48.8567C171.547 49.2288 171.13 49.5159 170.637 49.7182C170.144 49.9204 169.594 50.0215 168.987 50.0215H165.662ZM166.973 48.8931L166.936 48.7596H168.926C169.355 48.7596 169.735 48.6909 170.067 48.5534C170.406 48.4158 170.69 48.2217 170.916 47.971C171.151 47.7121 171.329 47.3967 171.45 47.0246C171.571 46.6525 171.632 46.2359 171.632 45.7748C171.632 45.3138 171.571 44.9012 171.45 44.5373C171.329 44.1652 171.151 43.8497 170.916 43.5909C170.681 43.332 170.398 43.1338 170.067 42.9963C169.735 42.8588 169.355 42.7901 168.926 42.7901H166.9L166.973 42.6809V48.8931Z" fill="black"/>
<rect x="241.416" y="24.6875" width="140.399" height="34.6665" rx="6.93329" fill="#DADADA"/>
<path d="M301.328 48.7434C300.484 48.7434 299.721 48.5643 299.04 48.2061C298.358 47.8363 297.792 47.3047 297.341 46.6114L298.589 45.2594C299.097 45.8256 299.554 46.2185 299.958 46.4381C300.363 46.6461 300.808 46.7501 301.293 46.7501C301.732 46.7501 302.125 46.6576 302.472 46.4728C302.818 46.2763 303.096 46.0163 303.304 45.6928C303.512 45.3576 303.616 44.9936 303.616 44.6008C303.616 44.1732 303.517 43.7977 303.321 43.4741C303.125 43.139 302.859 42.8732 302.524 42.6768C302.189 42.4803 301.807 42.3821 301.38 42.3821C301.149 42.3821 300.929 42.3994 300.721 42.4341C300.513 42.4688 300.27 42.5381 299.993 42.6421C299.727 42.7461 299.386 42.9079 298.97 43.1274L297.896 41.6714L298.606 36.4541H305.314V38.4475H299.872L300.374 37.8928L299.802 41.7408L299.161 41.2901C299.311 41.1514 299.531 41.0186 299.82 40.8915C300.12 40.7643 300.444 40.6603 300.79 40.5795C301.137 40.4986 301.478 40.4581 301.813 40.4581C302.564 40.4581 303.234 40.6315 303.824 40.9781C304.413 41.3248 304.881 41.8043 305.228 42.4168C305.574 43.0177 305.748 43.711 305.748 44.4968C305.748 45.2941 305.551 46.0163 305.158 46.6634C304.777 47.299 304.251 47.8074 303.581 48.1887C302.911 48.5585 302.16 48.7434 301.328 48.7434ZM312.198 48.7954C311.216 48.7954 310.372 48.547 309.667 48.0501C308.974 47.5416 308.436 46.8252 308.055 45.9008C307.685 44.9648 307.5 43.8497 307.5 42.5554C307.5 41.2612 307.685 40.1519 308.055 39.2275C308.436 38.2915 308.974 37.575 309.667 37.0781C310.372 36.5697 311.216 36.3155 312.198 36.3155C313.18 36.3155 314.024 36.5697 314.728 37.0781C315.433 37.575 315.971 38.2915 316.34 39.2275C316.722 40.1519 316.912 41.2612 316.912 42.5554C316.912 43.8497 316.722 44.9648 316.34 45.9008C315.971 46.8252 315.433 47.5416 314.728 48.0501C314.024 48.547 313.18 48.7954 312.198 48.7954ZM312.198 46.8194C313.007 46.8194 313.631 46.4496 314.07 45.7101C314.52 44.959 314.746 43.9074 314.746 42.5554C314.746 41.1919 314.52 40.1346 314.07 39.3835C313.631 38.6324 313.007 38.2568 312.198 38.2568C311.389 38.2568 310.759 38.6324 310.308 39.3835C309.869 40.1346 309.65 41.1919 309.65 42.5554C309.65 43.9074 309.869 44.959 310.308 45.7101C310.759 46.4496 311.389 46.8194 312.198 46.8194ZM323.133 48.7954C322.15 48.7954 321.307 48.547 320.602 48.0501C319.909 47.5416 319.371 46.8252 318.99 45.9008C318.62 44.9648 318.435 43.8497 318.435 42.5554C318.435 41.2612 318.62 40.1519 318.99 39.2275C319.371 38.2915 319.909 37.575 320.602 37.0781C321.307 36.5697 322.15 36.3155 323.133 36.3155C324.115 36.3155 324.958 36.5697 325.663 37.0781C326.368 37.575 326.905 38.2915 327.275 39.2275C327.657 40.1519 327.847 41.2612 327.847 42.5554C327.847 43.8497 327.657 44.9648 327.275 45.9008C326.905 46.8252 326.368 47.5416 325.663 48.0501C324.958 48.547 324.115 48.7954 323.133 48.7954ZM323.133 46.8194C323.942 46.8194 324.565 46.4496 325.005 45.7101C325.455 44.959 325.681 43.9074 325.681 42.5554C325.681 41.1919 325.455 40.1346 325.005 39.3835C324.565 38.6324 323.942 38.2568 323.133 38.2568C322.324 38.2568 321.694 38.6324 321.243 39.3835C320.804 40.1346 320.585 41.1919 320.585 42.5554C320.585 43.9074 320.804 44.959 321.243 45.7101C321.694 46.4496 322.324 46.8194 323.133 46.8194Z" fill="#1C1C1C"/>
<defs>
<linearGradient id="paint0_linear" x1="0" y1="41.9012" x2="424.61" y2="41.9012" gradientUnits="userSpaceOnUse">
<stop stop-color="#1FA2FF"/>
<stop offset="0.5" stop-color="#12D8FA"/>
<stop offset="1" stop-color="#A6FFCB"/>
</linearGradient>
</defs>
</svg>
