<svg width="425" height="84" viewBox="0 0 425 84" fill="none" xmlns="http://www.w3.org/2000/svg">
<rect x="1" y="1" width="422.61" height="81.8025" rx="15" fill="white" stroke="url(#paint0_linear)" stroke-width="2"/>
<path d="M71.7716 50.0215V35.4616H78.0948C78.9684 35.4616 79.7657 35.6696 80.4867 36.0856C81.2078 36.4877 81.7763 37.0424 82.1923 37.7496C82.6222 38.4429 82.8371 39.2264 82.8371 40.0999C82.8371 40.9319 82.6222 41.7015 82.1923 42.4087C81.7763 43.1021 81.2078 43.6567 80.4867 44.0727C79.7795 44.4749 78.9822 44.6759 78.0948 44.6759H74.4132V50.0215H71.7716ZM80.2163 50.0215L76.514 43.4487L79.3011 42.9287L83.4195 50.0423L80.2163 50.0215ZM74.4132 42.3255H78.1156C78.5177 42.3255 78.8644 42.2354 79.1555 42.0551C79.4606 41.861 79.6963 41.5975 79.8627 41.2647C80.0291 40.9319 80.1123 40.5645 80.1123 40.1623C80.1123 39.7047 80.0083 39.3096 79.8003 38.9768C79.5923 38.644 79.3011 38.3805 78.9268 38.1864C78.5524 37.9922 78.1225 37.8952 77.6372 37.8952H74.4132V42.3255ZM89.55 50.2295C88.6486 50.2295 87.8305 49.9799 87.0956 49.4807C86.3606 48.9815 85.7713 48.302 85.3276 47.4423C84.8839 46.5826 84.662 45.605 84.662 44.5095C84.662 43.4141 84.8839 42.4365 85.3276 41.5767C85.7713 40.717 86.3745 40.0445 87.1372 39.5591C87.8998 39.0738 88.7596 38.8312 89.7164 38.8312C90.271 38.8312 90.7772 38.9144 91.2347 39.0808C91.6923 39.2333 92.0945 39.4551 92.4411 39.7463C92.7878 40.0375 93.0721 40.3703 93.2939 40.7447C93.5297 41.1191 93.6891 41.5213 93.7723 41.9511L93.2107 41.8055V39.06H95.7899V50.0215H93.1899V47.4007L93.7931 47.2967C93.6961 47.6711 93.5158 48.0386 93.2523 48.3991C93.0027 48.7458 92.6838 49.0578 92.2955 49.3351C91.9211 49.5986 91.4982 49.8135 91.0267 49.9799C90.5692 50.1463 90.0769 50.2295 89.55 50.2295ZM90.2572 47.9623C90.8534 47.9623 91.3803 47.8167 91.8379 47.5255C92.2955 47.2343 92.6491 46.8322 92.8987 46.3191C93.1622 45.7922 93.2939 45.189 93.2939 44.5095C93.2939 43.8439 93.1622 43.2546 92.8987 42.7415C92.6491 42.2285 92.2955 41.8263 91.8379 41.5351C91.3803 41.2439 90.8534 41.0983 90.2572 41.0983C89.6609 41.0983 89.134 41.2439 88.6764 41.5351C88.2326 41.8263 87.886 42.2285 87.6364 42.7415C87.3868 43.2546 87.262 43.8439 87.262 44.5095C87.262 45.189 87.3868 45.7922 87.6364 46.3191C87.886 46.8322 88.2326 47.2343 88.6764 47.5255C89.134 47.8167 89.6609 47.9623 90.2572 47.9623ZM99.9416 50.0215V36.2728H102.5V50.0215H99.9416ZM97.7784 41.4311V39.06H104.892V41.4311H97.7784ZM111.876 50.2295C110.725 50.2295 109.706 49.9868 108.819 49.5015C107.945 49.0162 107.259 48.3575 106.76 47.5255C106.274 46.6796 106.032 45.7159 106.032 44.6343C106.032 43.7746 106.17 42.9911 106.448 42.2839C106.725 41.5767 107.106 40.9666 107.592 40.4535C108.091 39.9266 108.68 39.5245 109.36 39.2472C110.053 38.956 110.809 38.8104 111.627 38.8104C112.348 38.8104 113.02 38.949 113.644 39.2263C114.268 39.5037 114.809 39.885 115.267 40.3703C115.724 40.8418 116.071 41.4103 116.307 42.0759C116.556 42.7277 116.674 43.4418 116.66 44.2183L116.64 45.1127H107.758L107.28 43.3655H114.497L114.164 43.7191V43.2615C114.123 42.8317 113.984 42.4573 113.748 42.1383C113.513 41.8055 113.208 41.549 112.833 41.3687C112.473 41.1746 112.07 41.0775 111.627 41.0775C110.947 41.0775 110.372 41.2093 109.9 41.4727C109.443 41.7362 109.096 42.1175 108.86 42.6167C108.625 43.1021 108.507 43.7122 108.507 44.4471C108.507 45.1543 108.652 45.7714 108.944 46.2983C109.249 46.8252 109.672 47.2343 110.212 47.5255C110.767 47.8028 111.412 47.9415 112.147 47.9415C112.66 47.9415 113.131 47.8583 113.561 47.6919C113.991 47.5255 114.456 47.2274 114.955 46.7975L116.224 48.5655C115.849 48.9122 115.419 49.2103 114.934 49.4599C114.462 49.6956 113.963 49.8828 113.436 50.0215C112.909 50.1602 112.389 50.2295 111.876 50.2295ZM124.434 50.0215V41.6215H125.706L128.766 46.6015L128.154 46.5895L131.25 41.6215H132.45V50.0215H131.154V46.5775C131.154 45.8575 131.17 45.2095 131.202 44.6335C131.242 44.0575 131.306 43.4855 131.394 42.9175L131.562 43.3615L128.814 47.6095H128.022L125.358 43.4095L125.49 42.9175C125.578 43.4535 125.638 44.0055 125.67 44.5735C125.71 45.1335 125.73 45.8015 125.73 46.5775V50.0215H124.434ZM134.697 50.0215V43.7215H135.933V50.0215H134.697ZM135.297 42.3295C135.033 42.3295 134.829 42.2615 134.685 42.1255C134.541 41.9895 134.469 41.7975 134.469 41.5495C134.469 41.3175 134.541 41.1295 134.685 40.9855C134.837 40.8415 135.041 40.7695 135.297 40.7695C135.561 40.7695 135.765 40.8375 135.909 40.9735C136.053 41.1095 136.125 41.3015 136.125 41.5495C136.125 41.7815 136.049 41.9695 135.897 42.1135C135.753 42.2575 135.553 42.3295 135.297 42.3295ZM137.833 50.0215V43.7215H139.069V45.0175L138.853 45.1615C138.933 44.8815 139.089 44.6255 139.321 44.3935C139.553 44.1535 139.829 43.9615 140.149 43.8175C140.469 43.6655 140.797 43.5895 141.133 43.5895C141.613 43.5895 142.013 43.6855 142.333 43.8775C142.653 44.0615 142.893 44.3455 143.053 44.7295C143.213 45.1135 143.293 45.5975 143.293 46.1815V50.0215H142.057V46.2655C142.057 45.9055 142.009 45.6095 141.913 45.3775C141.817 45.1375 141.669 44.9655 141.469 44.8615C141.269 44.7495 141.021 44.7015 140.725 44.7175C140.485 44.7175 140.265 44.7575 140.065 44.8375C139.865 44.9095 139.689 45.0135 139.537 45.1495C139.393 45.2855 139.277 45.4455 139.189 45.6295C139.109 45.8055 139.069 45.9975 139.069 46.2055V50.0215H138.457C138.353 50.0215 138.249 50.0215 138.145 50.0215C138.041 50.0215 137.937 50.0215 137.833 50.0215ZM145.174 50.0215V43.7215H146.41V50.0215H145.174ZM145.774 42.3295C145.51 42.3295 145.306 42.2615 145.162 42.1255C145.018 41.9895 144.946 41.7975 144.946 41.5495C144.946 41.3175 145.018 41.1295 145.162 40.9855C145.314 40.8415 145.518 40.7695 145.774 40.7695C146.038 40.7695 146.242 40.8375 146.386 40.9735C146.53 41.1095 146.602 41.3015 146.602 41.5495C146.602 41.7815 146.526 41.9695 146.374 42.1135C146.23 42.2575 146.03 42.3295 145.774 42.3295ZM148.286 50.0215V43.7215H149.534V45.0655L149.306 45.2095C149.37 45.0015 149.47 44.8015 149.606 44.6095C149.75 44.4175 149.922 44.2495 150.122 44.1055C150.33 43.9535 150.55 43.8335 150.782 43.7455C151.022 43.6575 151.266 43.6135 151.514 43.6135C151.874 43.6135 152.19 43.6735 152.462 43.7935C152.734 43.9135 152.958 44.0935 153.134 44.3335C153.31 44.5735 153.438 44.8735 153.518 45.2335L153.326 45.1855L153.41 44.9815C153.498 44.7975 153.618 44.6255 153.77 44.4655C153.93 44.2975 154.11 44.1495 154.31 44.0215C154.51 43.8935 154.722 43.7935 154.946 43.7215C155.17 43.6495 155.39 43.6135 155.606 43.6135C156.078 43.6135 156.466 43.7095 156.77 43.9015C157.082 44.0935 157.314 44.3855 157.466 44.7775C157.626 45.1695 157.706 45.6575 157.706 46.2415V50.0215H156.458V46.3135C156.458 45.9535 156.41 45.6615 156.314 45.4375C156.226 45.2055 156.09 45.0335 155.906 44.9215C155.722 44.8095 155.486 44.7535 155.198 44.7535C154.974 44.7535 154.762 44.7935 154.562 44.8735C154.37 44.9455 154.202 45.0495 154.058 45.1855C153.914 45.3215 153.802 45.4815 153.722 45.6655C153.642 45.8415 153.602 46.0375 153.602 46.2535V50.0215H152.354V46.2895C152.354 45.9615 152.306 45.6855 152.21 45.4615C152.114 45.2295 151.974 45.0535 151.79 44.9335C151.606 44.8135 151.382 44.7535 151.118 44.7535C150.894 44.7535 150.686 44.7935 150.494 44.8735C150.302 44.9455 150.134 45.0495 149.99 45.1855C149.846 45.3135 149.734 45.4695 149.654 45.6535C149.574 45.8295 149.534 46.0215 149.534 46.2295V50.0215H148.286ZM161.569 50.1415C161.121 50.1415 160.729 50.0375 160.393 49.8295C160.065 49.6215 159.809 49.3295 159.625 48.9535C159.449 48.5775 159.361 48.1295 159.361 47.6095V43.7215H160.597V47.2735C160.597 47.6415 160.653 47.9615 160.765 48.2335C160.885 48.4975 161.053 48.7015 161.269 48.8455C161.493 48.9895 161.761 49.0615 162.073 49.0615C162.305 49.0615 162.517 49.0255 162.709 48.9535C162.901 48.8735 163.065 48.7655 163.201 48.6295C163.345 48.4935 163.457 48.3295 163.537 48.1375C163.617 47.9455 163.657 47.7375 163.657 47.5135V43.7215H164.893V50.0215H163.657V48.7015L163.873 48.5575C163.777 48.8535 163.613 49.1215 163.381 49.3615C163.157 49.6015 162.889 49.7935 162.577 49.9375C162.265 50.0735 161.929 50.1415 161.569 50.1415ZM166.602 50.0215V43.7215H167.85V45.0655L167.622 45.2095C167.686 45.0015 167.786 44.8015 167.922 44.6095C168.066 44.4175 168.238 44.2495 168.438 44.1055C168.646 43.9535 168.866 43.8335 169.098 43.7455C169.338 43.6575 169.582 43.6135 169.83 43.6135C170.19 43.6135 170.506 43.6735 170.778 43.7935C171.05 43.9135 171.274 44.0935 171.45 44.3335C171.626 44.5735 171.754 44.8735 171.834 45.2335L171.642 45.1855L171.726 44.9815C171.814 44.7975 171.934 44.6255 172.086 44.4655C172.246 44.2975 172.426 44.1495 172.626 44.0215C172.826 43.8935 173.038 43.7935 173.262 43.7215C173.486 43.6495 173.706 43.6135 173.922 43.6135C174.394 43.6135 174.782 43.7095 175.086 43.9015C175.398 44.0935 175.63 44.3855 175.782 44.7775C175.942 45.1695 176.022 45.6575 176.022 46.2415V50.0215H174.774V46.3135C174.774 45.9535 174.726 45.6615 174.63 45.4375C174.542 45.2055 174.406 45.0335 174.222 44.9215C174.038 44.8095 173.802 44.7535 173.514 44.7535C173.29 44.7535 173.078 44.7935 172.878 44.8735C172.686 44.9455 172.518 45.0495 172.374 45.1855C172.23 45.3215 172.118 45.4815 172.038 45.6655C171.958 45.8415 171.918 46.0375 171.918 46.2535V50.0215H170.67V46.2895C170.67 45.9615 170.622 45.6855 170.526 45.4615C170.43 45.2295 170.29 45.0535 170.106 44.9335C169.922 44.8135 169.698 44.7535 169.434 44.7535C169.21 44.7535 169.002 44.7935 168.81 44.8735C168.618 44.9455 168.45 45.0495 168.306 45.1855C168.162 45.3135 168.05 45.4695 167.97 45.6535C167.89 45.8295 167.85 46.0215 167.85 46.2295V50.0215H166.602ZM181.04 52.6615V43.7215H182.288V45.1615L182.096 45.0535C182.144 44.8135 182.28 44.5855 182.504 44.3695C182.728 44.1455 183 43.9655 183.32 43.8295C183.648 43.6855 183.984 43.6135 184.328 43.6135C184.896 43.6135 185.4 43.7535 185.84 44.0335C186.28 44.3135 186.628 44.6975 186.884 45.1855C187.14 45.6735 187.268 46.2335 187.268 46.8655C187.268 47.4895 187.14 48.0495 186.884 48.5455C186.636 49.0335 186.292 49.4215 185.852 49.7095C185.412 49.9895 184.916 50.1295 184.364 50.1295C183.996 50.1295 183.64 50.0575 183.296 49.9135C182.952 49.7615 182.66 49.5695 182.42 49.3375C182.18 49.1055 182.032 48.8655 181.976 48.6175L182.288 48.4495V52.6615H181.04ZM184.16 48.9895C184.528 48.9895 184.856 48.8975 185.144 48.7135C185.432 48.5295 185.66 48.2775 185.828 47.9575C185.996 47.6375 186.08 47.2735 186.08 46.8655C186.08 46.4575 185.996 46.0975 185.828 45.7855C185.668 45.4655 185.444 45.2135 185.156 45.0295C184.868 44.8455 184.536 44.7535 184.16 44.7535C183.784 44.7535 183.452 44.8455 183.164 45.0295C182.876 45.2055 182.648 45.4535 182.48 45.7735C182.312 46.0935 182.228 46.4575 182.228 46.8655C182.228 47.2735 182.312 47.6375 182.48 47.9575C182.648 48.2775 182.876 48.5295 183.164 48.7135C183.452 48.8975 183.784 48.9895 184.16 48.9895ZM188.611 50.0215V43.7215H189.859V45.7015L189.739 45.2215C189.827 44.9175 189.975 44.6415 190.183 44.3935C190.399 44.1455 190.643 43.9495 190.915 43.8055C191.195 43.6615 191.483 43.5895 191.779 43.5895C191.915 43.5895 192.043 43.6015 192.163 43.6255C192.291 43.6495 192.391 43.6775 192.463 43.7095L192.139 45.0535C192.043 45.0135 191.935 44.9815 191.815 44.9575C191.703 44.9255 191.591 44.9095 191.479 44.9095C191.263 44.9095 191.055 44.9535 190.855 45.0415C190.663 45.1215 190.491 45.2375 190.339 45.3895C190.195 45.5335 190.079 45.7055 189.991 45.9055C189.903 46.0975 189.859 46.3095 189.859 46.5415V50.0215H188.611ZM193.654 50.0215V43.7215H194.89V50.0215H193.654ZM194.254 42.3295C193.99 42.3295 193.786 42.2615 193.642 42.1255C193.498 41.9895 193.426 41.7975 193.426 41.5495C193.426 41.3175 193.498 41.1295 193.642 40.9855C193.794 40.8415 193.998 40.7695 194.254 40.7695C194.518 40.7695 194.722 40.8375 194.866 40.9735C195.01 41.1095 195.082 41.3015 195.082 41.5495C195.082 41.7815 195.006 41.9695 194.854 42.1135C194.71 42.2575 194.51 42.3295 194.254 42.3295ZM199.466 50.1415C198.882 50.1415 198.358 49.9975 197.894 49.7095C197.438 49.4215 197.074 49.0295 196.802 48.5335C196.538 48.0375 196.406 47.4815 196.406 46.8655C196.406 46.2495 196.538 45.6935 196.802 45.1975C197.074 44.7015 197.438 44.3095 197.894 44.0215C198.358 43.7335 198.882 43.5895 199.466 43.5895C200.026 43.5895 200.534 43.7055 200.99 43.9375C201.454 44.1615 201.806 44.4695 202.046 44.8615L201.362 45.7015C201.234 45.5175 201.07 45.3495 200.87 45.1975C200.67 45.0455 200.458 44.9255 200.234 44.8375C200.01 44.7495 199.794 44.7055 199.586 44.7055C199.202 44.7055 198.858 44.8015 198.554 44.9935C198.258 45.1775 198.022 45.4335 197.846 45.7615C197.67 46.0895 197.582 46.4575 197.582 46.8655C197.582 47.2735 197.674 47.6415 197.858 47.9695C198.042 48.2895 198.286 48.5455 198.59 48.7375C198.894 48.9295 199.23 49.0255 199.598 49.0255C199.814 49.0255 200.022 48.9895 200.222 48.9175C200.43 48.8455 200.63 48.7375 200.822 48.5935C201.014 48.4495 201.194 48.2735 201.362 48.0655L202.046 48.9055C201.79 49.2655 201.422 49.5615 200.942 49.7935C200.47 50.0255 199.978 50.1415 199.466 50.1415ZM206.152 50.1415C205.504 50.1415 204.928 50.0055 204.424 49.7335C203.928 49.4535 203.536 49.0735 203.248 48.5935C202.968 48.1135 202.828 47.5615 202.828 46.9375C202.828 46.4415 202.908 45.9895 203.068 45.5815C203.228 45.1735 203.448 44.8215 203.728 44.5255C204.016 44.2215 204.356 43.9895 204.748 43.8295C205.148 43.6615 205.58 43.5775 206.044 43.5775C206.452 43.5775 206.832 43.6575 207.184 43.8175C207.536 43.9695 207.84 44.1815 208.096 44.4535C208.36 44.7255 208.56 45.0495 208.696 45.4255C208.84 45.7935 208.908 46.1975 208.9 46.6375L208.888 47.1655H203.74L203.464 46.1815H207.82L207.64 46.3855V46.0975C207.616 45.8335 207.528 45.5975 207.376 45.3895C207.224 45.1815 207.032 45.0175 206.8 44.8975C206.568 44.7775 206.316 44.7175 206.044 44.7175C205.612 44.7175 205.248 44.8015 204.952 44.9695C204.656 45.1295 204.432 45.3695 204.28 45.6895C204.128 46.0015 204.052 46.3895 204.052 46.8535C204.052 47.2935 204.144 47.6775 204.328 48.0055C204.512 48.3255 204.772 48.5735 205.108 48.7495C205.444 48.9255 205.832 49.0135 206.272 49.0135C206.584 49.0135 206.872 48.9615 207.136 48.8575C207.408 48.7535 207.7 48.5655 208.012 48.2935L208.636 49.1695C208.444 49.3615 208.208 49.5295 207.928 49.6735C207.656 49.8175 207.364 49.9335 207.052 50.0215C206.748 50.1015 206.448 50.1415 206.152 50.1415Z" fill="black"/>
<rect x="241.416" y="24.6875" width="140.399" height="34.6665" rx="6.93329" fill="#DADADA"/>
<path d="M300.925 48.1865L300.353 46.7652L303.993 42.6919C304.201 42.4839 304.415 42.247 304.635 41.9812C304.854 41.7039 305.062 41.4208 305.259 41.1319C305.467 40.8315 305.634 40.5426 305.761 40.2652C305.888 39.9764 305.952 39.7106 305.952 39.4679C305.952 39.1559 305.883 38.8844 305.744 38.6532C305.617 38.4221 305.432 38.243 305.189 38.1159C304.947 37.9888 304.646 37.9253 304.288 37.9253C303.976 37.9253 303.67 38.0177 303.369 38.2026C303.08 38.3759 302.809 38.6301 302.555 38.9652C302.312 39.2888 302.11 39.6759 301.948 40.1266L300.249 39.1212C300.457 38.451 300.769 37.8733 301.185 37.3879C301.613 36.891 302.11 36.5097 302.676 36.2439C303.254 35.9782 303.878 35.8453 304.548 35.8453C305.241 35.8453 305.86 35.9897 306.403 36.2786C306.946 36.5675 307.373 36.9661 307.685 37.4746C308.009 37.983 308.171 38.5781 308.171 39.2599C308.171 39.5141 308.142 39.7799 308.084 40.0572C308.026 40.323 307.934 40.6061 307.807 40.9066C307.691 41.1955 307.535 41.5017 307.339 41.8252C307.142 42.1372 306.905 42.4666 306.628 42.8132C306.362 43.1599 306.056 43.5239 305.709 43.9052L302.953 46.9039L302.607 46.1065H308.604V48.1865H300.925ZM311.08 48.3772C310.664 48.3772 310.341 48.2559 310.109 48.0132C309.89 47.7705 309.78 47.4296 309.78 46.9905C309.78 46.5861 309.896 46.2568 310.127 46.0025C310.369 45.7368 310.687 45.6039 311.08 45.6039C311.496 45.6039 311.814 45.7252 312.033 45.9679C312.265 46.199 312.38 46.5399 312.38 46.9905C312.38 47.395 312.259 47.7301 312.016 47.9959C311.785 48.2501 311.473 48.3772 311.08 48.3772ZM318.791 48.1865V38.3933L319.623 38.4799L315.498 43.5239L315.307 43.2119H323.021V45.1705H314.094L313.158 43.3679L319.19 36.0186H320.958V48.1865H318.791Z" fill="#1C1C1C"/>
<path d="M58.9722 45.1725C58.9722 41.8283 56.0048 41.4472 53.6207 41.1414C51.0223 40.808 49.5519 40.5182 49.5519 38.453C49.5519 36.7196 51.52 36.1037 53.2054 36.1037C54.0454 36.0786 54.8797 36.2382 55.6397 36.5693C56.3997 36.9004 57.0635 37.3936 57.5765 38.008L58.798 37.0979C58.2486 36.4458 57.5651 35.9004 56.7867 35.493C56.0083 35.0856 55.1503 34.8243 54.2621 34.724V32.4805H52.692V34.6703C49.8541 34.8298 47.9818 36.308 47.9818 38.453C47.9818 41.8805 50.9885 42.2667 53.404 42.5762C55.9577 42.9044 57.4022 43.1863 57.4022 45.1725C57.4022 47.3697 54.9427 47.6979 53.477 47.6979C50.7844 47.6979 49.6477 46.9994 48.5926 45.7936L47.3711 46.7037C47.9934 47.4607 48.7984 48.0734 49.722 48.4932C50.6456 48.9129 51.6625 49.1282 52.692 49.1218V51.3211H54.2621V49.1146C57.1871 48.8943 58.9722 47.4284 58.9722 45.1725Z" fill="black" stroke="black"/>
<defs>
<linearGradient id="paint0_linear" x1="0" y1="41.9012" x2="424.61" y2="41.9012" gradientUnits="userSpaceOnUse">
<stop stop-color="#1FA2FF"/>
<stop offset="0.5" stop-color="#12D8FA"/>
<stop offset="1" stop-color="#A6FFCB"/>
</linearGradient>
</defs>
</svg>
