<svg width="425" height="84" viewBox="0 0 425 84" fill="none" xmlns="http://www.w3.org/2000/svg">
<rect x="1" y="1" width="422.61" height="81.8025" rx="15" fill="white" stroke="url(#paint0_linear)" stroke-width="2"/>
<path d="M71.7716 50.0215V35.4616H78.0948C78.9684 35.4616 79.7657 35.6696 80.4867 36.0856C81.2078 36.4877 81.7763 37.0424 82.1923 37.7496C82.6222 38.4429 82.8371 39.2264 82.8371 40.0999C82.8371 40.9319 82.6222 41.7015 82.1923 42.4087C81.7763 43.1021 81.2078 43.6567 80.4867 44.0727C79.7795 44.4749 78.9822 44.6759 78.0948 44.6759H74.4132V50.0215H71.7716ZM80.2163 50.0215L76.514 43.4487L79.3011 42.9287L83.4195 50.0423L80.2163 50.0215ZM74.4132 42.3255H78.1156C78.5177 42.3255 78.8644 42.2354 79.1555 42.0551C79.4606 41.861 79.6963 41.5975 79.8627 41.2647C80.0291 40.9319 80.1123 40.5645 80.1123 40.1623C80.1123 39.7047 80.0083 39.3096 79.8003 38.9768C79.5923 38.644 79.3011 38.3805 78.9268 38.1864C78.5524 37.9922 78.1225 37.8952 77.6372 37.8952H74.4132V42.3255ZM89.55 50.2295C88.6486 50.2295 87.8305 49.9799 87.0956 49.4807C86.3606 48.9815 85.7713 48.302 85.3276 47.4423C84.8839 46.5826 84.662 45.605 84.662 44.5095C84.662 43.4141 84.8839 42.4365 85.3276 41.5767C85.7713 40.717 86.3745 40.0445 87.1372 39.5591C87.8998 39.0738 88.7596 38.8312 89.7164 38.8312C90.271 38.8312 90.7772 38.9144 91.2347 39.0808C91.6923 39.2333 92.0945 39.4551 92.4411 39.7463C92.7878 40.0375 93.0721 40.3703 93.2939 40.7447C93.5297 41.1191 93.6891 41.5213 93.7723 41.9511L93.2107 41.8055V39.06H95.7899V50.0215H93.1899V47.4007L93.7931 47.2967C93.6961 47.6711 93.5158 48.0386 93.2523 48.3991C93.0027 48.7458 92.6838 49.0578 92.2955 49.3351C91.9211 49.5986 91.4982 49.8135 91.0267 49.9799C90.5692 50.1463 90.0769 50.2295 89.55 50.2295ZM90.2572 47.9623C90.8534 47.9623 91.3803 47.8167 91.8379 47.5255C92.2955 47.2343 92.6491 46.8322 92.8987 46.3191C93.1622 45.7922 93.2939 45.189 93.2939 44.5095C93.2939 43.8439 93.1622 43.2546 92.8987 42.7415C92.6491 42.2285 92.2955 41.8263 91.8379 41.5351C91.3803 41.2439 90.8534 41.0983 90.2572 41.0983C89.6609 41.0983 89.134 41.2439 88.6764 41.5351C88.2326 41.8263 87.886 42.2285 87.6364 42.7415C87.3868 43.2546 87.262 43.8439 87.262 44.5095C87.262 45.189 87.3868 45.7922 87.6364 46.3191C87.886 46.8322 88.2326 47.2343 88.6764 47.5255C89.134 47.8167 89.6609 47.9623 90.2572 47.9623ZM98.756 50.0215V39.06H101.252L101.294 41.3063L100.815 41.5559C100.954 41.0567 101.224 40.6061 101.626 40.2039C102.029 39.7879 102.507 39.4551 103.062 39.2056C103.616 38.956 104.185 38.8312 104.767 38.8312C105.599 38.8312 106.293 38.9976 106.847 39.3304C107.416 39.6631 107.839 40.1623 108.116 40.8279C108.407 41.4935 108.553 42.3255 108.553 43.3239V50.0215H105.994V43.5111C105.994 42.9565 105.918 42.4989 105.766 42.1383C105.613 41.7639 105.377 41.4935 105.058 41.3271C104.739 41.1469 104.351 41.0637 103.894 41.0775C103.519 41.0775 103.173 41.1399 102.854 41.2647C102.549 41.3757 102.278 41.5421 102.042 41.7639C101.821 41.9719 101.64 42.2146 101.502 42.4919C101.377 42.7693 101.314 43.0743 101.314 43.4071V50.0215H100.046C99.796 50.0215 99.5603 50.0215 99.3384 50.0215C99.1304 50.0215 98.9363 50.0215 98.756 50.0215ZM116.361 54.8055C115.542 54.8055 114.724 54.6807 113.906 54.4311C113.102 54.1815 112.45 53.8556 111.951 53.4535L112.866 51.5607C113.157 51.7687 113.483 51.9489 113.844 52.1015C114.204 52.254 114.586 52.3719 114.988 52.4551C115.404 52.5383 115.813 52.5799 116.215 52.5799C116.95 52.5799 117.56 52.462 118.045 52.2263C118.544 52.0044 118.919 51.6577 119.168 51.1863C119.418 50.7287 119.543 50.1532 119.543 49.4599V47.4423L119.917 47.5879C119.834 48.0178 119.605 48.4268 119.231 48.8151C118.856 49.2034 118.385 49.5223 117.816 49.7719C117.248 50.0076 116.666 50.1255 116.069 50.1255C115.029 50.1255 114.107 49.8828 113.303 49.3975C112.513 48.9122 111.882 48.2535 111.41 47.4215C110.953 46.5756 110.724 45.605 110.724 44.5095C110.724 43.4141 110.953 42.4434 111.41 41.5975C111.868 40.7378 112.492 40.0653 113.282 39.5799C114.086 39.0808 114.988 38.8312 115.986 38.8312C116.402 38.8312 116.804 38.8797 117.193 38.9768C117.581 39.0738 117.934 39.2125 118.253 39.3927C118.586 39.573 118.884 39.7741 119.148 39.9959C119.411 40.2178 119.626 40.4535 119.792 40.7031C119.959 40.9527 120.063 41.1954 120.104 41.4311L119.564 41.5975L119.605 39.06H122.122V49.2727C122.122 50.1602 121.99 50.9436 121.727 51.6231C121.463 52.3025 121.082 52.878 120.583 53.3495C120.084 53.8348 119.48 54.1953 118.773 54.4311C118.066 54.6807 117.262 54.8055 116.361 54.8055ZM116.465 47.9415C117.089 47.9415 117.636 47.7959 118.108 47.5047C118.593 47.2135 118.967 46.8114 119.231 46.2983C119.494 45.7852 119.626 45.1959 119.626 44.5303C119.626 43.8509 119.487 43.2546 119.21 42.7415C118.947 42.2146 118.579 41.8055 118.108 41.5143C117.636 41.2231 117.089 41.0775 116.465 41.0775C115.841 41.0775 115.293 41.2301 114.821 41.5351C114.35 41.8263 113.975 42.2354 113.698 42.7623C113.435 43.2754 113.303 43.8647 113.303 44.5303C113.303 45.182 113.435 45.7714 113.698 46.2983C113.975 46.8114 114.35 47.2135 114.821 47.5047C115.293 47.7959 115.841 47.9415 116.465 47.9415ZM130.218 50.2295C129.067 50.2295 128.048 49.9868 127.161 49.5015C126.287 49.0162 125.601 48.3575 125.102 47.5255C124.616 46.6796 124.374 45.7159 124.374 44.6343C124.374 43.7746 124.512 42.9911 124.79 42.2839C125.067 41.5767 125.448 40.9666 125.934 40.4535C126.433 39.9266 127.022 39.5245 127.702 39.2472C128.395 38.956 129.151 38.8104 129.969 38.8104C130.69 38.8104 131.362 38.949 131.986 39.2263C132.61 39.5037 133.151 39.885 133.609 40.3703C134.066 40.8418 134.413 41.4103 134.649 42.0759C134.898 42.7277 135.016 43.4418 135.002 44.2183L134.982 45.1127H126.1L125.622 43.3655H132.839L132.506 43.7191V43.2615C132.465 42.8317 132.326 42.4573 132.09 42.1383C131.855 41.8055 131.55 41.549 131.175 41.3687C130.815 41.1746 130.413 41.0775 129.969 41.0775C129.289 41.0775 128.714 41.2093 128.242 41.4727C127.785 41.7362 127.438 42.1175 127.202 42.6167C126.967 43.1021 126.849 43.7122 126.849 44.4471C126.849 45.1543 126.994 45.7714 127.286 46.2983C127.591 46.8252 128.014 47.2343 128.554 47.5255C129.109 47.8028 129.754 47.9415 130.489 47.9415C131.002 47.9415 131.473 47.8583 131.903 47.6919C132.333 47.5255 132.798 47.2274 133.297 46.7975L134.566 48.5655C134.191 48.9122 133.761 49.2103 133.276 49.4599C132.805 49.6956 132.305 49.8828 131.778 50.0215C131.251 50.1602 130.731 50.2295 130.218 50.2295ZM142.776 50.0215V41.6215H144.048L147.108 46.6015L146.496 46.5895L149.592 41.6215H150.792V50.0215H149.496V46.5775C149.496 45.8575 149.512 45.2095 149.544 44.6335C149.584 44.0575 149.648 43.4855 149.736 42.9175L149.904 43.3615L147.156 47.6095H146.364L143.7 43.4095L143.832 42.9175C143.92 43.4535 143.98 44.0055 144.012 44.5735C144.052 45.1335 144.072 45.8015 144.072 46.5775V50.0215H142.776ZM153.039 50.0215V43.7215H154.275V50.0215H153.039ZM153.639 42.3295C153.375 42.3295 153.171 42.2615 153.027 42.1255C152.883 41.9895 152.811 41.7975 152.811 41.5495C152.811 41.3175 152.883 41.1295 153.027 40.9855C153.179 40.8415 153.383 40.7695 153.639 40.7695C153.903 40.7695 154.107 40.8375 154.251 40.9735C154.395 41.1095 154.467 41.3015 154.467 41.5495C154.467 41.7815 154.391 41.9695 154.239 42.1135C154.095 42.2575 153.895 42.3295 153.639 42.3295ZM156.175 50.0215V43.7215H157.411V45.0175L157.195 45.1615C157.275 44.8815 157.431 44.6255 157.663 44.3935C157.895 44.1535 158.171 43.9615 158.491 43.8175C158.811 43.6655 159.139 43.5895 159.475 43.5895C159.955 43.5895 160.355 43.6855 160.675 43.8775C160.995 44.0615 161.235 44.3455 161.395 44.7295C161.555 45.1135 161.635 45.5975 161.635 46.1815V50.0215H160.399V46.2655C160.399 45.9055 160.351 45.6095 160.255 45.3775C160.159 45.1375 160.011 44.9655 159.811 44.8615C159.611 44.7495 159.363 44.7015 159.067 44.7175C158.827 44.7175 158.607 44.7575 158.407 44.8375C158.207 44.9095 158.031 45.0135 157.879 45.1495C157.735 45.2855 157.619 45.4455 157.531 45.6295C157.451 45.8055 157.411 45.9975 157.411 46.2055V50.0215H156.799C156.695 50.0215 156.591 50.0215 156.487 50.0215C156.383 50.0215 156.279 50.0215 156.175 50.0215ZM165.52 50.1415C165.072 50.1415 164.68 50.0375 164.344 49.8295C164.016 49.6215 163.76 49.3295 163.576 48.9535C163.4 48.5775 163.312 48.1295 163.312 47.6095V43.7215H164.548V47.2735C164.548 47.6415 164.604 47.9615 164.716 48.2335C164.836 48.4975 165.004 48.7015 165.22 48.8455C165.444 48.9895 165.712 49.0615 166.024 49.0615C166.256 49.0615 166.468 49.0255 166.66 48.9535C166.852 48.8735 167.016 48.7655 167.152 48.6295C167.296 48.4935 167.408 48.3295 167.488 48.1375C167.568 47.9455 167.608 47.7375 167.608 47.5135V43.7215H168.844V50.0215H167.608V48.7015L167.824 48.5575C167.728 48.8535 167.564 49.1215 167.332 49.3615C167.108 49.6015 166.84 49.7935 166.528 49.9375C166.216 50.0735 165.88 50.1415 165.52 50.1415ZM171.358 50.0215V42.1135H172.594V50.0215H171.358ZM170.05 44.9215V43.7215H174.058V44.9215H170.05ZM178.064 50.1415C177.416 50.1415 176.84 50.0055 176.336 49.7335C175.84 49.4535 175.448 49.0735 175.16 48.5935C174.88 48.1135 174.74 47.5615 174.74 46.9375C174.74 46.4415 174.82 45.9895 174.98 45.5815C175.14 45.1735 175.36 44.8215 175.64 44.5255C175.928 44.2215 176.268 43.9895 176.66 43.8295C177.06 43.6615 177.492 43.5775 177.956 43.5775C178.364 43.5775 178.744 43.6575 179.096 43.8175C179.448 43.9695 179.752 44.1815 180.008 44.4535C180.272 44.7255 180.472 45.0495 180.608 45.4255C180.752 45.7935 180.82 46.1975 180.812 46.6375L180.8 47.1655H175.652L175.376 46.1815H179.732L179.552 46.3855V46.0975C179.528 45.8335 179.44 45.5975 179.288 45.3895C179.136 45.1815 178.944 45.0175 178.712 44.8975C178.48 44.7775 178.228 44.7175 177.956 44.7175C177.524 44.7175 177.16 44.8015 176.864 44.9695C176.568 45.1295 176.344 45.3695 176.192 45.6895C176.04 46.0015 175.964 46.3895 175.964 46.8535C175.964 47.2935 176.056 47.6775 176.24 48.0055C176.424 48.3255 176.684 48.5735 177.02 48.7495C177.356 48.9255 177.744 49.0135 178.184 49.0135C178.496 49.0135 178.784 48.9615 179.048 48.8575C179.32 48.7535 179.612 48.5655 179.924 48.2935L180.548 49.1695C180.356 49.3615 180.12 49.5295 179.84 49.6735C179.568 49.8175 179.276 49.9335 178.964 50.0215C178.66 50.1015 178.36 50.1415 178.064 50.1415ZM184.256 50.1415C183.728 50.1415 183.252 50.0495 182.828 49.8655C182.404 49.6815 182.052 49.4095 181.772 49.0495L182.612 48.3295C182.852 48.6095 183.112 48.8135 183.392 48.9415C183.68 49.0615 184.004 49.1215 184.364 49.1215C184.508 49.1215 184.64 49.1055 184.76 49.0735C184.888 49.0335 184.996 48.9775 185.084 48.9055C185.18 48.8335 185.252 48.7495 185.3 48.6535C185.348 48.5495 185.372 48.4375 185.372 48.3175C185.372 48.1095 185.296 47.9415 185.144 47.8135C185.064 47.7575 184.936 47.6975 184.76 47.6335C184.592 47.5615 184.372 47.4895 184.1 47.4175C183.636 47.2975 183.256 47.1615 182.96 47.0095C182.664 46.8575 182.436 46.6855 182.276 46.4935C182.156 46.3415 182.068 46.1775 182.012 46.0015C181.956 45.8175 181.928 45.6175 181.928 45.4015C181.928 45.1375 181.984 44.8975 182.096 44.6815C182.216 44.4575 182.376 44.2655 182.576 44.1055C182.784 43.9375 183.024 43.8095 183.296 43.7215C183.576 43.6335 183.872 43.5895 184.184 43.5895C184.48 43.5895 184.772 43.6295 185.06 43.7095C185.356 43.7895 185.628 43.9055 185.876 44.0575C186.124 44.2095 186.332 44.3895 186.5 44.5975L185.792 45.3775C185.64 45.2255 185.472 45.0935 185.288 44.9815C185.112 44.8615 184.932 44.7695 184.748 44.7055C184.564 44.6415 184.396 44.6095 184.244 44.6095C184.076 44.6095 183.924 44.6255 183.788 44.6575C183.652 44.6895 183.536 44.7375 183.44 44.8015C183.352 44.8655 183.284 44.9455 183.236 45.0415C183.188 45.1375 183.164 45.2455 183.164 45.3655C183.172 45.4695 183.196 45.5695 183.236 45.6655C183.284 45.7535 183.348 45.8295 183.428 45.8935C183.516 45.9575 183.648 46.0255 183.824 46.0975C184 46.1695 184.224 46.2375 184.496 46.3015C184.896 46.4055 185.224 46.5215 185.48 46.6495C185.744 46.7695 185.952 46.9095 186.104 47.0695C186.264 47.2215 186.376 47.3975 186.44 47.5975C186.504 47.7975 186.536 48.0215 186.536 48.2695C186.536 48.6295 186.432 48.9535 186.224 49.2415C186.024 49.5215 185.752 49.7415 185.408 49.9015C185.064 50.0615 184.68 50.1415 184.256 50.1415Z" fill="black"/>
<rect x="241.416" y="24.6875" width="140.399" height="34.6665" rx="6.93329" fill="#DADADA"/>
<path d="M300.925 48.1865L300.353 46.7652L303.993 42.6919C304.201 42.4839 304.415 42.247 304.635 41.9812C304.854 41.7039 305.062 41.4208 305.259 41.1319C305.467 40.8315 305.634 40.5426 305.761 40.2652C305.889 39.9764 305.952 39.7106 305.952 39.4679C305.952 39.1559 305.883 38.8844 305.744 38.6532C305.617 38.4221 305.432 38.243 305.189 38.1159C304.947 37.9888 304.646 37.9253 304.288 37.9253C303.976 37.9253 303.67 38.0177 303.369 38.2026C303.081 38.3759 302.809 38.6301 302.555 38.9652C302.312 39.2888 302.11 39.6759 301.948 40.1266L300.249 39.1212C300.457 38.451 300.769 37.8733 301.185 37.3879C301.613 36.891 302.11 36.5097 302.676 36.2439C303.254 35.9782 303.878 35.8453 304.548 35.8453C305.241 35.8453 305.86 35.9897 306.403 36.2786C306.946 36.5675 307.373 36.9661 307.685 37.4746C308.009 37.983 308.171 38.5781 308.171 39.2599C308.171 39.5141 308.142 39.7799 308.084 40.0572C308.026 40.323 307.934 40.6061 307.807 40.9066C307.691 41.1955 307.535 41.5017 307.339 41.8252C307.142 42.1372 306.905 42.4666 306.628 42.8132C306.362 43.1599 306.056 43.5239 305.709 43.9052L302.953 46.9039L302.607 46.1065H308.604V48.1865H300.925ZM311.08 48.3772C310.664 48.3772 310.341 48.2559 310.109 48.0132C309.89 47.7705 309.78 47.4296 309.78 46.9905C309.78 46.5861 309.896 46.2568 310.127 46.0025C310.369 45.7368 310.687 45.6039 311.08 45.6039C311.496 45.6039 311.814 45.7252 312.033 45.9679C312.265 46.199 312.38 46.5399 312.38 46.9905C312.38 47.395 312.259 47.7301 312.016 47.9959C311.785 48.2501 311.473 48.3772 311.08 48.3772ZM318.792 48.1865V38.3933L319.624 38.4799L315.498 43.5239L315.308 43.2119H323.021V45.1705H314.094L313.158 43.3679L319.19 36.0186H320.958V48.1865H318.792Z" fill="#1C1C1C"/>
<defs>
<linearGradient id="paint0_linear" x1="0" y1="41.9012" x2="424.61" y2="41.9012" gradientUnits="userSpaceOnUse">
<stop stop-color="#1FA2FF"/>
<stop offset="0.5" stop-color="#12D8FA"/>
<stop offset="1" stop-color="#A6FFCB"/>
</linearGradient>
</defs>
</svg>
