<svg width="425" height="85" viewBox="0 0 425 85" fill="none" xmlns="http://www.w3.org/2000/svg">
<rect x="1" y="1.87988" width="422.61" height="81.8025" rx="15" fill="white" stroke="url(#paint0_linear)" stroke-width="2"/>
<path d="M71.7716 50.9014V36.3415H81.2979V38.7958H74.434V48.447H81.3811V50.9014H71.7716ZM73.0196 44.6614V42.2486H80.2371V44.6614H73.0196ZM91.4067 50.9014L88.2867 46.679L87.7043 45.8886L83.1907 39.9398H86.3523L89.3891 44.0582L90.0339 44.9318L94.5059 50.9014H91.4067ZM83.1699 50.9014L87.5171 45.0774L88.9731 46.8246L86.1859 50.9014H83.1699ZM90.0339 45.7846L88.6403 44.0582L91.1571 39.9398H94.1731L90.0339 45.7846ZM100.41 51.1094C99.3838 51.1094 98.4617 50.8598 97.6435 50.3606C96.8254 49.8614 96.1806 49.1819 95.7092 48.3222C95.2377 47.4625 95.002 46.4918 95.002 45.4102C95.002 44.3286 95.2377 43.3579 95.7092 42.4982C96.1806 41.6385 96.8254 40.959 97.6435 40.4598C98.4617 39.9606 99.3838 39.711 100.41 39.711C101.394 39.711 102.289 39.8982 103.093 40.2726C103.897 40.647 104.521 41.167 104.965 41.8326L103.551 43.5382C103.343 43.247 103.079 42.9835 102.76 42.7478C102.441 42.5121 102.102 42.3249 101.741 42.1862C101.381 42.0476 101.02 41.9782 100.66 41.9782C100.049 41.9782 99.5017 42.1308 99.0163 42.4358C98.5449 42.727 98.1705 43.1361 97.8931 43.663C97.6158 44.1761 97.4771 44.7585 97.4771 45.4102C97.4771 46.0619 97.6158 46.6443 97.8931 47.1574C98.1843 47.6705 98.5726 48.0795 99.0579 48.3846C99.5433 48.6896 100.084 48.8422 100.68 48.8422C101.041 48.8422 101.388 48.7867 101.72 48.6758C102.067 48.551 102.393 48.3776 102.698 48.1558C103.003 47.9339 103.287 47.6566 103.551 47.3238L104.965 49.0502C104.494 49.6603 103.842 50.1595 103.01 50.5478C102.192 50.9222 101.325 51.1094 100.41 51.1094ZM106.942 50.9014V35.5095H109.522V50.9014H106.942ZM116.233 51.1094C115.442 51.1094 114.756 50.936 114.173 50.5894C113.591 50.2288 113.147 49.7227 112.842 49.071C112.537 48.4054 112.385 47.615 112.385 46.6998V39.9398H114.943V46.159C114.943 46.7414 115.033 47.2406 115.213 47.6566C115.394 48.0587 115.657 48.3707 116.004 48.5926C116.35 48.8144 116.766 48.9254 117.252 48.9254C117.612 48.9254 117.938 48.8699 118.229 48.759C118.534 48.6342 118.798 48.4678 119.02 48.2598C119.242 48.0379 119.415 47.7814 119.54 47.4902C119.665 47.1851 119.727 46.8593 119.727 46.5126V39.9398H122.285V50.9014H119.789L119.748 48.6134L120.205 48.3638C120.039 48.8907 119.755 49.3622 119.353 49.7782C118.964 50.1803 118.5 50.5062 117.959 50.7558C117.418 50.9915 116.843 51.1094 116.233 51.1094ZM129.694 51.1094C128.723 51.1094 127.849 50.8667 127.073 50.3814C126.31 49.8822 125.7 49.2096 125.242 48.3638C124.799 47.5041 124.577 46.5195 124.577 45.4102C124.577 44.3147 124.799 43.3371 125.242 42.4774C125.686 41.6177 126.289 40.9452 127.052 40.4598C127.828 39.9606 128.702 39.711 129.673 39.711C130.2 39.711 130.706 39.7942 131.191 39.9606C131.69 40.127 132.134 40.3558 132.522 40.647C132.911 40.9244 133.216 41.2364 133.438 41.583C133.673 41.9297 133.805 42.2902 133.833 42.6646L133.146 42.7478V35.5095H135.705V50.9014H133.23L133.167 48.3222L133.666 48.3638C133.652 48.7104 133.528 49.0432 133.292 49.3622C133.07 49.6811 132.779 49.9723 132.418 50.2358C132.058 50.4992 131.635 50.7142 131.15 50.8806C130.678 51.0331 130.193 51.1094 129.694 51.1094ZM130.193 48.9462C130.789 48.9462 131.316 48.7936 131.774 48.4886C132.231 48.1835 132.585 47.7675 132.834 47.2406C133.098 46.7137 133.23 46.1035 133.23 45.4102C133.23 44.7307 133.098 44.1275 132.834 43.6006C132.585 43.0598 132.231 42.6438 131.774 42.3526C131.316 42.0476 130.789 41.895 130.193 41.895C129.596 41.895 129.07 42.0476 128.612 42.3526C128.154 42.6438 127.794 43.0598 127.53 43.6006C127.281 44.1275 127.156 44.7307 127.156 45.4102C127.156 46.1035 127.281 46.7137 127.53 47.2406C127.794 47.7675 128.154 48.1835 128.612 48.4886C129.07 48.7936 129.596 48.9462 130.193 48.9462ZM143.746 51.1094C142.596 51.1094 141.576 50.8667 140.689 50.3814C139.815 49.896 139.129 49.2374 138.63 48.4054C138.144 47.5595 137.902 46.5958 137.902 45.5142C137.902 44.6545 138.04 43.871 138.318 43.1638C138.595 42.4566 138.976 41.8465 139.462 41.3334C139.961 40.8065 140.55 40.4044 141.23 40.127C141.923 39.8358 142.679 39.6902 143.497 39.6902C144.218 39.6902 144.89 39.8289 145.514 40.1062C146.138 40.3836 146.679 40.7649 147.137 41.2502C147.594 41.7217 147.941 42.2902 148.177 42.9558C148.426 43.6075 148.544 44.3217 148.53 45.0982L148.51 45.9926H139.628L139.15 44.2454H146.367L146.034 44.599V44.1414C145.993 43.7115 145.854 43.3371 145.618 43.0182C145.383 42.6854 145.078 42.4289 144.703 42.2486C144.343 42.0545 143.941 41.9574 143.497 41.9574C142.817 41.9574 142.242 42.0892 141.77 42.3526C141.313 42.6161 140.966 42.9974 140.73 43.4966C140.495 43.9819 140.377 44.5921 140.377 45.327C140.377 46.0342 140.522 46.6513 140.814 47.1782C141.119 47.7051 141.542 48.1142 142.082 48.4054C142.637 48.6827 143.282 48.8214 144.017 48.8214C144.53 48.8214 145.001 48.7382 145.431 48.5718C145.861 48.4054 146.326 48.1073 146.825 47.6774L148.094 49.4454C147.719 49.792 147.289 50.0902 146.804 50.3398C146.333 50.5755 145.833 50.7627 145.306 50.9014C144.78 51.04 144.26 51.1094 143.746 51.1094Z" fill="black"/>
<rect x="247" y="26.3269" width="138" height="34.0741" rx="6.81481" fill="#DADADA"/>
<path d="M284.871 49.4592C284.178 49.4592 283.542 49.374 282.962 49.2036C282.383 49.0219 281.861 48.755 281.395 48.4029C280.929 48.0508 280.515 47.6249 280.151 47.1251L281.599 45.4896C282.156 46.2619 282.701 46.7957 283.235 47.091C283.769 47.3863 284.371 47.534 285.041 47.534C285.427 47.534 285.779 47.4772 286.097 47.3636C286.415 47.2387 286.665 47.074 286.847 46.8696C287.029 46.6538 287.119 46.4096 287.119 46.137C287.119 45.9439 287.08 45.7678 287 45.6088C286.932 45.4384 286.824 45.2908 286.676 45.1659C286.529 45.0296 286.347 44.9046 286.131 44.791C285.915 44.6775 285.671 44.5809 285.399 44.5014C285.126 44.4219 284.825 44.3481 284.496 44.2799C283.871 44.155 283.326 43.9903 282.86 43.7859C282.395 43.5701 282.003 43.3088 281.685 43.0022C281.367 42.6841 281.134 42.332 280.986 41.9459C280.838 41.5483 280.765 41.0997 280.765 40.5999C280.765 40.1002 280.873 39.6402 281.088 39.2199C281.315 38.7997 281.622 38.4362 282.008 38.1296C282.395 37.8229 282.843 37.5844 283.354 37.414C283.865 37.2436 284.416 37.1584 285.007 37.1584C285.677 37.1584 286.273 37.238 286.796 37.397C287.33 37.556 287.795 37.7945 288.193 38.1125C288.602 38.4192 288.937 38.794 289.198 39.237L287.733 40.6851C287.506 40.333 287.25 40.0434 286.966 39.8162C286.682 39.5777 286.375 39.4017 286.046 39.2881C285.717 39.1631 285.37 39.1007 285.007 39.1007C284.598 39.1007 284.24 39.1575 283.934 39.271C283.638 39.3846 283.405 39.5493 283.235 39.7651C283.065 39.9696 282.979 40.2194 282.979 40.5147C282.979 40.7419 283.031 40.9463 283.133 41.1281C283.235 41.2984 283.377 41.4518 283.559 41.5881C283.752 41.7244 283.996 41.8436 284.291 41.9459C284.587 42.0481 284.922 42.1389 285.296 42.2184C285.921 42.3434 286.483 42.5138 286.983 42.7296C287.483 42.934 287.909 43.1839 288.261 43.4792C288.613 43.7631 288.88 44.0925 289.062 44.4673C289.243 44.8308 289.334 45.2397 289.334 45.694C289.334 46.4777 289.147 47.1535 288.772 47.7214C288.409 48.278 287.892 48.7096 287.222 49.0162C286.552 49.3115 285.768 49.4592 284.871 49.4592ZM295.603 49.4592C294.66 49.4592 293.826 49.2604 293.099 48.8629C292.383 48.4654 291.821 47.9259 291.412 47.2444C291.014 46.5515 290.816 45.7622 290.816 44.8762C290.816 44.172 290.929 43.5303 291.156 42.951C291.384 42.3718 291.696 41.872 292.093 41.4518C292.502 41.0202 292.985 40.6908 293.542 40.4636C294.11 40.2251 294.729 40.1059 295.399 40.1059C295.989 40.1059 296.54 40.2194 297.051 40.4466C297.562 40.6738 298.005 40.9861 298.38 41.3836C298.755 41.7698 299.039 42.2355 299.232 42.7807C299.436 43.3145 299.533 43.8994 299.522 44.5355L299.505 45.2681H292.23L291.838 43.837H297.75L297.477 44.1266V43.7518C297.443 43.3997 297.33 43.093 297.136 42.8318C296.943 42.5592 296.693 42.3491 296.387 42.2014C296.091 42.0424 295.762 41.9629 295.399 41.9629C294.842 41.9629 294.371 42.0708 293.985 42.2866C293.61 42.5024 293.326 42.8147 293.133 43.2236C292.94 43.6212 292.843 44.1209 292.843 44.7229C292.843 45.3022 292.962 45.8076 293.201 46.2392C293.451 46.6708 293.797 47.0059 294.24 47.2444C294.694 47.4715 295.223 47.5851 295.825 47.5851C296.245 47.5851 296.631 47.517 296.983 47.3807C297.335 47.2444 297.716 47.0002 298.125 46.6481L299.164 48.0962C298.857 48.3802 298.505 48.6244 298.108 48.8288C297.721 49.0219 297.312 49.1752 296.881 49.2888C296.449 49.4024 296.023 49.4592 295.603 49.4592ZM301.395 49.2888V36.6814H303.507V49.2888H301.395ZM310.011 49.4592C309.069 49.4592 308.234 49.2604 307.507 48.8629C306.791 48.4654 306.229 47.9259 305.82 47.2444C305.423 46.5515 305.224 45.7622 305.224 44.8762C305.224 44.172 305.338 43.5303 305.565 42.951C305.792 42.3718 306.104 41.872 306.502 41.4518C306.911 41.0202 307.393 40.6908 307.95 40.4636C308.518 40.2251 309.137 40.1059 309.807 40.1059C310.398 40.1059 310.948 40.2194 311.46 40.4466C311.971 40.6738 312.414 40.9861 312.788 41.3836C313.163 41.7698 313.447 42.2355 313.64 42.7807C313.845 43.3145 313.941 43.8994 313.93 44.5355L313.913 45.2681H306.638L306.246 43.837H312.158L311.885 44.1266V43.7518C311.851 43.3997 311.738 43.093 311.545 42.8318C311.352 42.5592 311.102 42.3491 310.795 42.2014C310.5 42.0424 310.17 41.9629 309.807 41.9629C309.25 41.9629 308.779 42.0708 308.393 42.2866C308.018 42.5024 307.734 42.8147 307.541 43.2236C307.348 43.6212 307.251 44.1209 307.251 44.7229C307.251 45.3022 307.371 45.8076 307.609 46.2392C307.859 46.6708 308.205 47.0059 308.648 47.2444C309.103 47.4715 309.631 47.5851 310.233 47.5851C310.653 47.5851 311.039 47.517 311.391 47.3807C311.743 47.2444 312.124 47.0002 312.533 46.6481L313.572 48.0962C313.265 48.3802 312.913 48.6244 312.516 48.8288C312.13 49.0219 311.721 49.1752 311.289 49.2888C310.858 49.4024 310.432 49.4592 310.011 49.4592ZM319.636 49.4592C318.796 49.4592 318.04 49.2547 317.37 48.8459C316.7 48.437 316.172 47.8804 315.786 47.1762C315.4 46.472 315.207 45.677 315.207 44.791C315.207 43.9051 315.4 43.1101 315.786 42.4059C316.172 41.7017 316.7 41.1451 317.37 40.7362C318.04 40.3273 318.796 40.1229 319.636 40.1229C320.443 40.1229 321.175 40.2762 321.834 40.5829C322.493 40.8896 323.004 41.3155 323.367 41.8607L322.209 43.2577C322.038 43.0192 321.823 42.8034 321.561 42.6103C321.3 42.4172 321.022 42.2639 320.727 42.1503C320.431 42.0367 320.136 41.9799 319.841 41.9799C319.341 41.9799 318.892 42.1049 318.495 42.3547C318.109 42.5933 317.802 42.9283 317.575 43.3599C317.348 43.7802 317.234 44.2572 317.234 44.791C317.234 45.3249 317.348 45.8019 317.575 46.2222C317.813 46.6424 318.131 46.9775 318.529 47.2273C318.926 47.4772 319.369 47.6022 319.858 47.6022C320.153 47.6022 320.437 47.5567 320.71 47.4659C320.994 47.3636 321.26 47.2217 321.51 47.0399C321.76 46.8582 321.993 46.631 322.209 46.3584L323.367 47.7725C322.981 48.2723 322.447 48.6812 321.766 48.9992C321.096 49.3059 320.386 49.4592 319.636 49.4592ZM325.941 49.2888V38.0273H328.037V49.2888H325.941ZM324.169 42.2525V40.3103H329.996V42.2525H324.169Z" fill="#1C1C1C"/>
<path d="M344.963 47.6228L339.061 41.2339L350.864 41.2339L344.963 47.6228Z" fill="#1C1C1C"/>
<defs>
<linearGradient id="paint0_linear" x1="0" y1="42.7811" x2="424.61" y2="42.7811" gradientUnits="userSpaceOnUse">
<stop stop-color="#1FA2FF"/>
<stop offset="0.5" stop-color="#12D8FA"/>
<stop offset="1" stop-color="#A6FFCB"/>
</linearGradient>
</defs>
</svg>
