<svg width="47" height="36" viewBox="0 0 47 36" fill="none" xmlns="http://www.w3.org/2000/svg">
<path d="M0 7.37178C0 5.43997 0.767408 3.58729 2.1334 2.22129C3.4994 0.855298 5.35208 0.0878906 7.28389 0.0878906H39.333C41.2648 0.0878906 43.1175 0.855298 44.4835 2.22129C45.8495 3.58729 46.6169 5.43997 46.6169 7.37178V27.7667C46.6169 29.6985 45.8495 31.5512 44.4835 32.9172C43.1175 34.2832 41.2648 35.0506 39.333 35.0506H7.28389C5.35208 35.0506 3.4994 34.2832 2.1334 32.9172C0.767408 31.5512 0 29.6985 0 27.7667V7.37178ZM2.91356 27.7667C2.91356 28.9258 3.374 30.0374 4.1936 30.857C5.01319 31.6766 6.1248 32.137 7.28389 32.137H39.333C40.4921 32.137 41.6037 31.6766 42.4233 30.857C43.2429 30.0374 43.7033 28.9258 43.7033 27.7667V14.6557H2.91356V27.7667ZM43.7033 7.37178C43.7033 6.2127 43.2429 5.10108 42.4233 4.28149C41.6037 3.46189 40.4921 3.00145 39.333 3.00145H7.28389C6.1248 3.00145 5.01319 3.46189 4.1936 4.28149C3.374 5.10108 2.91356 6.2127 2.91356 7.37178V11.7421H43.7033V7.37178Z" fill="#3E31AE"/>
</svg>
