<svg width="48" height="48" viewBox="0 0 48 48" fill="none" xmlns="http://www.w3.org/2000/svg">
<path d="M0 23.7421C0 19.4459 1.06377 15.4735 3.1913 11.8248C5.31884 8.17611 8.20181 5.29314 11.8402 3.17589C15.4786 1.05863 19.4356 0 23.7112 0C26.918 0 29.9808 0.626955 32.8997 1.88087C35.8187 3.13478 38.3368 4.82036 40.454 6.93762C42.5713 9.05487 44.2569 11.5781 45.5108 14.5073C46.7647 17.4365 47.3916 20.5148 47.3916 23.7421C47.3916 26.9488 46.7647 30.0168 45.5108 32.946C44.2569 35.8752 42.5713 38.3933 40.454 40.5003C38.3368 42.6072 35.8187 44.2825 32.8997 45.5262C29.9808 46.7698 26.918 47.3916 23.7112 47.3916C20.484 47.3916 17.4057 46.7647 14.4765 45.5108C11.5473 44.2569 9.02404 42.5713 6.90678 40.454C4.78953 38.3368 3.10908 35.8238 1.86545 32.9151C0.621816 30.0065 0 26.9488 0 23.7421ZM5.21092 23.7421C5.21092 28.7372 7.03012 33.0744 10.6685 36.754C14.3069 40.3923 18.6545 42.2115 23.7112 42.2115C27.0413 42.2115 30.1247 41.3842 32.9614 39.7294C35.7981 38.0747 38.049 35.8289 39.714 32.9922C41.379 30.1555 42.2115 27.0721 42.2115 23.7421C42.2115 20.412 41.379 17.3235 39.714 14.4765C38.049 11.6295 35.7981 9.37863 32.9614 7.72388C30.1247 6.06913 27.0413 5.24176 23.7112 5.24176C20.3812 5.24176 17.2978 6.06913 14.4611 7.72388C11.6244 9.37863 9.37349 11.6295 7.70846 14.4765C6.04344 17.3235 5.21092 20.412 5.21092 23.7421ZM13.5361 28.1359C13.6594 27.6734 13.9266 27.3188 14.3377 27.0721L21.892 22.6629V9.71266C21.892 9.21932 22.0616 8.80307 22.4008 8.46389C22.74 8.12472 23.1562 7.95513 23.6496 7.95513C24.1429 7.95513 24.5592 8.12472 24.8983 8.46389C25.2375 8.80307 25.4071 9.21932 25.4071 9.71266V23.7421C25.4071 24.1326 25.2889 24.4821 25.0525 24.7904C24.8161 25.0988 24.5232 25.3043 24.1737 25.4071L16.0953 30.0938C15.8486 30.2583 15.5608 30.3405 15.2319 30.3405C14.5536 30.3405 14.05 30.0424 13.7211 29.4463C13.4744 29.0352 13.4127 28.5984 13.5361 28.1359Z" fill="#3E31AE"/>
</svg>
