<svg width="44" height="45" viewBox="0 0 44 45" fill="none" xmlns="http://www.w3.org/2000/svg">
<path d="M1.9424 43.2086C1.96045 43.0589 1.9806 42.902 2.00311 42.7387C2.1993 41.3153 2.56838 39.4475 3.25253 37.6043C4.55224 34.1025 6.7717 31.1483 10.741 30.7897C13.4148 33.8894 17.5975 36.1969 21.8624 36.1969C26.1622 36.1969 30.1899 33.8299 32.8202 30.7104C35.1085 30.868 36.7405 31.6684 37.9467 32.7445C39.3327 33.981 40.2692 35.6853 40.887 37.5177C41.5029 39.3443 41.7685 41.1996 41.8762 42.6186C41.892 42.8262 41.9043 43.0234 41.9138 43.2086H1.9424Z" stroke="#3E31AE" stroke-width="3.58289"/>
<path d="M26.9817 22.6939C28.5641 20.1082 29.4743 17.07 29.4743 15.1795C29.4743 11.7545 26.2708 8.61795 21.8535 8.61517L26.9817 22.6939ZM26.9817 22.6939C26.2034 23.9657 25.3178 25.0342 24.4001 25.7671M26.9817 22.6939L24.4001 25.7671M24.4001 25.7671C23.4837 26.4989 22.6281 26.8263 21.8535 26.8263M24.4001 25.7671L21.8535 26.8263M21.8535 26.8263C21.0819 26.8263 20.2279 26.4994 19.312 25.7672M21.8535 26.8263L19.312 25.7672M19.312 25.7672C18.3949 25.0341 17.5096 23.9652 16.7313 22.6931M19.312 25.7672L16.7313 22.6931M16.7313 22.6931C15.1489 20.1066 14.2382 17.0684 14.2382 15.1795M16.7313 22.6931L14.2382 15.1795M14.2382 15.1795C14.2382 11.7507 17.4428 8.61562 21.8526 8.61517L14.2382 15.1795Z" stroke="#3E31AE" stroke-width="3.58289"/>
<path d="M32.3771 8.93729V10.1929L33.6328 10.1975C34.2618 10.1998 34.7663 10.3503 35.0701 10.5267C35.2072 10.6063 35.2699 10.6669 35.2962 10.6992L35.3233 25.3178H32.0645V24.9667H33.7173H34.9775V23.7065V20.6603V19.4001H33.7173C33.6477 19.4001 33.5874 19.4052 33.5399 19.4111C32.9452 19.3991 32.4669 19.2539 32.1733 19.0838C32.033 19.0026 31.9695 18.9406 31.9432 18.9079V10.8467C31.9564 10.8079 31.9701 10.7625 31.9824 10.7116L32.0172 10.5666V10.4175V8.07583C32.0172 8.35299 32.0792 7.57595 32.0148 7.02005C31.9362 6.34061 31.6908 5.46067 31.0363 4.59822C29.7075 2.84742 26.9999 1.5373 21.87 1.5373C16.7354 1.5373 14.0035 2.84982 12.6339 4.57707C11.2806 6.28371 11.5481 8.111 11.5481 8.07583V10.2991V10.5418L11.6383 10.7671C11.6514 10.8 11.6643 10.8296 11.6754 10.8544V18.7327C11.6466 18.7647 11.5841 18.8204 11.4583 18.8924C11.1545 19.0661 10.6513 19.2136 10.0286 19.2136C9.40589 19.2136 8.90486 19.0661 8.60315 18.8931C8.47805 18.8214 8.4161 18.7659 8.38767 18.7341V10.7353C8.4155 10.7037 8.47692 10.6482 8.60237 10.5762C8.8909 10.4107 9.36439 10.2682 9.95598 10.2574C9.99709 10.2618 10.0489 10.2656 10.1085 10.2656H11.3687V9.00538V7.01011C11.3687 7.00938 11.3687 7.00819 11.3687 7.00656C11.3678 6.91961 11.3535 5.5623 12.4986 4.21269C13.64 2.86738 16.1691 1.26023 21.87 1.26023C27.574 1.26023 30.1047 2.8675 31.2468 4.21293C32.3924 5.56253 32.3781 6.91975 32.3772 7.00657C32.3772 7.0082 32.3771 7.00938 32.3771 7.01011V8.93729ZM35.3129 10.7253C35.3125 10.7255 35.3102 10.722 35.3075 10.7145C35.312 10.7215 35.3134 10.7252 35.3129 10.7253ZM31.9267 18.882C31.9271 18.8819 31.9293 18.8853 31.932 18.8925C31.9276 18.8857 31.9263 18.8821 31.9267 18.882ZM11.6972 18.7023C11.6977 18.7024 11.696 18.7063 11.6909 18.7137C11.6941 18.7059 11.6967 18.7022 11.6972 18.7023ZM8.36631 18.704C8.3668 18.7039 8.36939 18.7076 8.3726 18.7155C8.36743 18.7081 8.36582 18.7042 8.36631 18.704ZM8.36727 10.7645C8.36676 10.7644 8.36836 10.7604 8.37358 10.7529C8.37039 10.7609 8.36777 10.7647 8.36727 10.7645Z" stroke="#3E31AE" stroke-width="2.52045"/>
</svg>
