<svg width="50" height="50" viewBox="0 0 50 50" fill="none" xmlns="http://www.w3.org/2000/svg">
<path d="M10.362 15.7905C4.66732 15.7905 0 20.4435 0 26.1229C0 28.3236 0.702639 30.3688 1.89229 32.0499L9.09779 44.506C10.1068 45.8244 10.7779 45.5742 11.6172 44.4369L19.5644 30.9121C19.7247 30.6209 19.8505 30.3121 19.9606 29.9963C20.4649 28.7672 20.7242 27.4514 20.7239 26.1229C20.7239 20.4435 16.0581 15.7905 10.362 15.7905ZM10.362 20.632C13.4291 20.632 15.8686 23.0651 15.8686 26.1234C15.8686 29.1816 13.4291 31.6137 10.362 31.6137C7.29531 31.6137 4.85531 29.1811 4.85531 26.1234C4.85531 23.0651 7.29531 20.632 10.362 20.632Z" fill="#3E31AE"/>
<path d="M43.2979 0C39.9761 0 37.2534 2.71434 37.2534 6.0277C37.2534 7.3111 37.663 8.5042 38.3572 9.48464L42.5607 16.7508C43.1494 17.5196 43.5407 17.3735 44.0301 16.7104L48.6659 8.82049C48.7596 8.65124 48.8331 8.47114 48.8968 8.2866C49.1911 7.56986 49.3424 6.8025 49.3424 6.0277C49.3424 2.71384 46.6206 0 43.2979 0ZM43.2979 2.82437C45.0871 2.82437 46.5101 4.24347 46.5101 6.0277C46.5101 7.81143 45.0871 9.23003 43.2979 9.23003C41.5092 9.23003 40.0857 7.81143 40.0857 6.0277C40.0857 4.24347 41.5092 2.82437 43.2979 2.82437Z" fill="#3E31AE"/>
<path fill-rule="evenodd" clip-rule="evenodd" d="M43.5245 18.4609C42.4157 18.4856 41.304 18.5325 40.1904 18.6149L40.3621 21.3445C41.4319 21.267 42.5034 21.2172 43.5758 21.195L43.5245 18.4609ZM37.6157 18.8655C35.9035 19.0782 34.1765 19.3812 32.4692 19.8682L33.1122 22.5134C34.6635 22.0713 36.2711 21.7856 37.9038 21.5828L37.6157 18.8655ZM29.9128 20.784C29.4013 21.0098 28.906 21.2708 28.4306 21.5651L28.4286 21.5676L28.4256 21.5685C27.7472 21.9958 27.0322 22.5381 26.4485 23.3261C26.0256 23.897 25.6797 24.6189 25.5988 25.4725L28.1128 25.7513C28.1315 25.551 28.2342 25.2865 28.4187 25.0378H28.4197V25.0368C28.7172 24.6342 29.1633 24.2686 29.6937 23.934L29.6957 23.933C30.0738 23.6997 30.4675 23.4926 30.874 23.3133L29.9128 20.784ZM28.6185 26.9691L26.9888 29.0587C27.3751 29.412 27.7802 29.6834 28.1715 29.9104L28.1764 29.9129L28.1814 29.9158C29.4801 30.6545 30.8192 31.0714 32.0607 31.4672L32.7742 28.8431C31.5332 28.4474 30.3633 28.0655 29.3607 27.4961C29.0735 27.3293 28.8218 27.1551 28.6185 26.9691ZM35.1984 29.5813L34.5017 32.2098L34.8313 32.3124L35.2359 32.4417C36.5751 32.8774 37.858 33.3427 39.0047 33.9866L40.1682 31.5589C38.7817 30.7798 37.3423 30.2706 35.9553 29.8196L35.9514 29.8186L35.5359 29.6859L35.1984 29.5813ZM42.5342 33.3807L40.7465 35.3149C41.1688 35.7723 41.4851 36.3225 41.6391 36.8909L41.6401 36.8939L41.6411 36.8983C41.8246 37.562 41.8251 38.3426 41.6815 39.1311L44.1605 39.66C44.3628 38.5468 44.3954 37.3246 44.0628 36.1182C43.7732 35.0514 43.2205 34.1248 42.5342 33.3807ZM40.816 40.7791C40.5429 41.0676 40.241 41.3275 39.9151 41.5548H39.9141C39.0259 42.1794 37.9956 42.6502 36.9012 43.0548L37.7173 45.6423C38.9144 45.1997 40.1435 44.6569 41.2922 43.8487L41.2952 43.8462L41.2966 43.8453C41.7684 43.5149 42.2048 43.1368 42.5988 42.7168L40.816 40.7791ZM34.5791 43.7836C32.9938 44.2099 31.3733 44.5346 29.7332 44.8099L30.12 47.5134C31.8081 47.2297 33.503 46.8907 35.1875 46.4377L34.5791 43.7836ZM27.2656 45.1829C25.6146 45.4084 23.9547 45.5925 22.2899 45.7494L22.508 48.4741C24.1984 48.3152 25.8919 48.1282 27.5828 47.8968L27.2656 45.1829ZM19.7877 45.964C18.1194 46.0963 16.4472 46.2038 14.7735 46.2946L14.8998 49.0262C16.5898 48.9349 18.2813 48.8259 19.9722 48.6917L19.7877 45.964ZM12.2585 46.418C11.2554 46.4649 10.2498 46.5033 9.2417 46.5389L9.3246 49.2729C10.339 49.2381 11.3531 49.1976 12.3671 49.1516L12.2585 46.418Z" fill="#3E31AE"/>
</svg>
