<svg width="50" height="50" viewBox="0 0 50 50" fill="none" xmlns="http://www.w3.org/2000/svg">
<path d="M23.5239 15.5198H41.84L42.4261 15.5393C44.3469 15.6814 46.1506 16.5172 47.5008 17.8907C48.851 19.2643 49.6556 21.082 49.7648 23.005L49.777 23.4568V41.7729C49.7771 43.8002 49.0015 45.7507 47.6091 47.2243C46.2168 48.6979 44.3134 49.5828 42.2894 49.6976L41.84 49.7098H23.5239C21.4966 49.71 19.5461 48.9343 18.0725 47.542C16.5989 46.1497 15.7139 44.2463 15.5992 42.2222L15.587 41.7753V23.4592C15.5868 21.4319 16.3625 19.4814 17.7548 18.0078C19.1471 16.5342 21.0505 15.6492 23.0746 15.5345L23.5239 15.5223V15.5198ZM19.2502 41.7729L19.2624 42.083L19.3063 42.4664C19.4611 43.407 19.9259 44.2689 20.6269 44.915C21.3278 45.561 22.2246 45.9542 23.1747 46.032L23.5239 46.0466H41.84C42.913 46.0465 43.9466 45.6429 44.7357 44.9158C45.5247 44.1887 46.0114 43.1915 46.0991 42.1221L46.1138 41.7729V23.4568C46.1138 22.3233 45.6635 21.2363 44.862 20.4348C44.0605 19.6333 42.9735 19.183 41.84 19.183H23.5239C22.4514 19.1831 21.418 19.5864 20.629 20.313C19.84 21.0395 19.3531 22.0362 19.2648 23.1051L19.2502 23.4568V41.7729ZM34.5136 8.19582C36.0798 8.19606 37.611 8.65942 38.9146 9.52762C40.2183 10.3958 41.236 11.6301 41.84 13.0752H37.4979C36.7868 12.3792 35.8545 11.9541 34.8628 11.8737L34.5136 11.859H16.1975C15.1249 11.8591 14.0916 12.2624 13.3026 12.989C12.5136 13.7155 12.0266 14.7122 11.9384 15.7811L11.9237 16.1328V34.4489L11.9482 34.9275C12.0581 35.902 12.4952 36.7762 13.1448 37.4405V41.7777C11.7689 41.2039 10.5822 40.2544 9.72064 39.0378C8.85905 37.8212 8.35727 36.3866 8.27273 34.8982L8.26052 34.4489V16.1328C8.26038 14.1055 9.03603 12.155 10.4283 10.6814C11.8206 9.20776 13.7241 8.32281 15.7481 8.20803L16.1975 8.19582H34.5136ZM27.1871 0.869385C30.3619 0.869385 33.0996 2.73274 34.3695 5.42643L34.5136 5.75367L30.1739 5.75123C29.4626 5.05381 28.5293 4.62778 27.5364 4.54725L27.1871 4.5326H8.87105C7.79849 4.53264 6.76515 4.93597 5.97616 5.66253C5.18716 6.38909 4.70021 7.38576 4.61195 8.45469L4.5973 8.80635V27.1224C4.5973 28.2873 5.06131 29.3448 5.81837 30.1141V34.4513C4.44244 33.8775 3.25581 32.9279 2.39421 31.7113C1.53261 30.4947 1.03084 29.0602 0.946293 27.5718L0.934082 27.1224V8.80635C0.933949 6.77904 1.7096 4.82852 3.1019 3.35492C4.49421 1.88133 6.39763 0.996373 8.4217 0.881596L8.87105 0.869385H27.1871Z" fill="#3E31AE"/>
</svg>
