<svg width="44" height="44" viewBox="0 0 44 44" fill="none" xmlns="http://www.w3.org/2000/svg">
<path d="M21.5984 2.02663e-05C17.563 -0.00551056 13.6071 1.12112 10.1801 3.25185C6.75316 5.38259 3.99268 8.43196 2.21242 12.0534C0.432161 15.6748 -0.296464 19.723 0.109359 23.7379C0.515183 27.7528 2.03918 31.5733 4.50813 34.7653C6.97707 37.9572 10.2919 40.3925 14.076 41.7943C17.86 43.1962 21.9614 43.5083 25.914 42.6954C29.8666 41.8824 33.5119 39.977 36.4355 37.1955C39.3592 34.4141 41.4439 30.8682 42.4527 26.961H36.8421C35.8535 29.7574 34.115 32.2282 31.8168 34.1031C29.5186 35.9781 26.7492 37.1852 23.8112 37.5923C20.8733 37.9994 17.8799 37.591 15.1585 36.4116C12.437 35.2323 10.0922 33.3274 8.38032 30.9053C6.66847 28.4831 5.65549 25.6369 5.45214 22.6779C5.24879 19.7188 5.8629 16.7609 7.22732 14.1273C8.59174 11.4937 10.654 9.28601 13.1885 7.74545C15.723 6.20489 18.6324 5.39081 21.5984 5.39222C23.7199 5.39532 25.8195 5.82133 27.7744 6.64534C29.7293 7.46935 31.5004 8.67482 32.984 10.1913L24.308 18.8727H43.1807V2.02663e-05L36.8421 6.33586C34.8448 4.3264 32.4696 2.73204 29.8534 1.64464C27.2372 0.557241 24.4316 -0.00170112 21.5984 2.02663e-05Z" fill="#3E31AE"/>
</svg>
