<svg width="1405" height="165" viewBox="0 0 1405 165" fill="none" xmlns="http://www.w3.org/2000/svg">
<path d="M114.016 164.824L60.8448 92.8048L85.6448 75.544L138.221 146.968L114.016 164.824ZM72.5504 144.984C62.1013 144.984 52.512 143.198 43.7824 139.627C35.0528 136.056 27.4475 131.03 20.9664 124.549C14.4853 118.068 9.4592 110.462 5.888 101.733C2.3168 93.0032 0.531201 83.4139 0.531201 72.9648C0.531201 62.5157 2.3168 52.9264 5.888 44.1968C9.4592 35.4672 14.4853 27.8619 20.9664 21.3808C27.4475 14.8997 35.0528 9.87359 43.7824 6.30239C52.512 2.73119 62.1013 0.945589 72.5504 0.945589C82.9995 0.945589 92.5888 2.73119 101.318 6.30239C110.048 9.87359 117.653 14.8997 124.134 21.3808C130.615 27.8619 135.575 35.4672 139.014 44.1968C142.586 52.9264 144.371 62.5157 144.371 72.9648C144.371 83.2816 142.586 92.8709 139.014 101.733C135.575 110.462 130.615 118.068 124.134 124.549C117.653 131.03 110.048 136.056 101.318 139.627C92.5888 143.198 82.9995 144.984 72.5504 144.984ZM72.5504 113.24C77.9733 113.24 82.9333 112.248 87.4304 110.264C92.0597 108.28 96.0277 105.502 99.3344 101.931C102.773 98.2277 105.419 93.9291 107.27 89.0352C109.122 84.1413 110.048 78.7845 110.048 72.9648C110.048 67.1451 109.122 61.7883 107.27 56.8944C105.419 52.0005 102.773 47.768 99.3344 44.1968C96.0277 40.4933 92.0597 37.6496 87.4304 35.6656C82.9333 33.6816 77.9733 32.6896 72.5504 32.6896C67.1275 32.6896 62.1013 33.6816 57.472 35.6656C52.9749 37.6496 49.0069 40.4933 45.568 44.1968C42.1291 47.768 39.4837 52.0005 37.632 56.8944C35.9125 61.7883 35.0528 67.1451 35.0528 72.9648C35.0528 78.7845 35.9125 84.2075 37.632 89.2336C39.4837 94.1275 42.1291 98.36 45.568 101.931C49.0069 105.502 52.9749 108.28 57.472 110.264C62.1013 112.248 67.1275 113.24 72.5504 113.24ZM228.993 144.19C217.486 144.19 207.236 141.876 198.241 137.246C189.247 132.485 182.171 126.004 177.013 117.803C171.987 109.603 169.473 100.212 169.473 89.6304V4.11998H203.598V87.8448C203.598 92.8709 204.723 97.4341 206.971 101.534C209.22 105.502 212.262 108.677 216.097 111.058C219.933 113.306 224.232 114.43 228.993 114.43C234.02 114.43 238.451 113.306 242.286 111.058C246.254 108.677 249.429 105.502 251.809 101.534C254.19 97.4341 255.381 92.8709 255.381 87.8448V4.11998H288.315V89.6304C288.315 100.212 285.736 109.603 280.577 117.803C275.551 126.004 268.541 132.485 259.547 137.246C250.553 141.876 240.368 144.19 228.993 144.19ZM322.172 143V4.11998H418.991V32.888H354.908V114.232H420.975V143H322.172ZM338.044 86.0592V58.68H410.063V86.0592H338.044ZM496.076 144.984C486.949 144.984 478.682 143.926 471.276 141.81C464.001 139.561 457.52 136.387 451.832 132.286C446.145 128.054 441.053 123.094 436.556 117.406L456.991 94.1936C463.604 103.055 470.217 109.007 476.831 112.05C483.576 115.092 490.52 116.613 497.663 116.613C501.234 116.613 504.474 116.15 507.384 115.224C510.294 114.298 512.543 112.975 514.13 111.256C515.717 109.404 516.511 107.156 516.511 104.51C516.511 102.526 515.982 100.741 514.924 99.1536C513.998 97.5664 512.675 96.1776 510.956 94.9872C509.236 93.7968 507.186 92.7387 504.805 91.8128C502.424 90.7547 499.911 89.8949 497.266 89.2336C494.621 88.44 491.909 87.7787 489.132 87.2496C481.46 85.5301 474.781 83.4139 469.093 80.9008C463.406 78.3877 458.644 75.3456 454.808 71.7744C451.105 68.0709 448.327 63.9045 446.476 59.2752C444.624 54.5136 443.698 49.2229 443.698 43.4032C443.698 37.1867 445.087 31.4992 447.864 26.3408C450.774 21.0501 454.61 16.5531 459.372 12.8496C464.265 9.01385 469.887 6.10398 476.236 4.11998C482.584 2.00372 489.198 0.945589 496.076 0.945589C505.202 0.945589 513.006 1.93759 519.487 3.92159C526.1 5.77332 531.721 8.48479 536.351 12.056C541.112 15.6272 545.146 19.9259 548.453 24.952L527.621 44.9904C524.844 41.5515 521.801 38.7077 518.495 36.4592C515.32 34.2107 511.881 32.4912 508.178 31.3008C504.607 30.1104 500.903 29.5152 497.068 29.5152C493.1 29.5152 489.661 30.0443 486.751 31.1024C483.973 32.0283 481.791 33.4171 480.204 35.2688C478.616 36.9883 477.823 39.1045 477.823 41.6176C477.823 43.8661 478.484 45.784 479.807 47.3712C481.129 48.9584 482.915 50.4133 485.164 51.736C487.412 52.9264 489.991 53.9845 492.901 54.9104C495.811 55.704 498.853 56.3653 502.028 56.8944C509.302 58.3493 515.849 60.2672 521.669 62.648C527.621 65.0288 532.713 67.9387 536.946 71.3776C541.311 74.8165 544.617 78.9168 546.866 83.6784C549.247 88.3077 550.437 93.7307 550.437 99.9472C550.437 109.603 548.056 117.803 543.295 124.549C538.665 131.162 532.25 136.254 524.05 139.826C515.982 143.265 506.657 144.984 496.076 144.984ZM605.947 143V33.88H564.68V4.11998H681.935V33.88H639.675V143H605.947ZM703.019 143V114.629H726.43V32.4912H703.019V4.11998H783.768V32.4912H760.158V114.629H783.768V143H703.019ZM876.23 144.984C865.649 144.984 855.993 143.198 847.264 139.627C838.534 136.056 830.929 131.03 824.448 124.549C817.967 118.068 812.94 110.462 809.369 101.733C805.798 93.0032 804.012 83.4139 804.012 72.9648C804.012 62.5157 805.798 52.9264 809.369 44.1968C812.94 35.4672 817.967 27.8619 824.448 21.3808C830.929 14.8997 838.534 9.87359 847.264 6.30239C855.993 2.73119 865.583 0.945589 876.032 0.945589C886.481 0.945589 896.07 2.73119 904.8 6.30239C913.529 9.87359 921.135 14.8997 927.616 21.3808C934.097 27.8619 939.057 35.4672 942.496 44.1968C946.067 52.9264 947.852 62.5157 947.852 72.9648C947.852 83.2816 946.067 92.8709 942.496 101.733C939.057 110.462 934.097 118.068 927.616 124.549C921.135 131.03 913.529 136.056 904.8 139.627C896.07 143.198 886.547 144.984 876.23 144.984ZM876.032 113.24C881.455 113.24 886.415 112.248 890.912 110.264C895.541 108.28 899.509 105.502 902.816 101.931C906.255 98.2277 908.9 93.9291 910.752 89.0352C912.603 84.1413 913.529 78.7845 913.529 72.9648C913.529 67.1451 912.603 61.7883 910.752 56.8944C908.9 52.0005 906.255 47.768 902.816 44.1968C899.509 40.4933 895.541 37.6496 890.912 35.6656C886.415 33.6816 881.455 32.6896 876.032 32.6896C870.609 32.6896 865.583 33.6816 860.953 35.6656C856.456 37.6496 852.488 40.4933 849.049 44.1968C845.61 47.768 842.965 52.0005 841.113 56.8944C839.394 61.7883 838.534 67.1451 838.534 72.9648C838.534 78.7845 839.394 84.2075 841.113 89.2336C842.965 94.1275 845.61 98.36 849.049 101.931C852.488 105.502 856.456 108.28 860.953 110.264C865.583 112.248 870.609 113.24 876.032 113.24ZM973.947 143V4.11998H1004.1L1076.92 103.32L1070.37 102.328C1069.71 97.9632 1069.18 93.7968 1068.78 89.8288C1068.39 85.8608 1067.99 81.9589 1067.59 78.1232C1067.33 74.2875 1067.06 70.3856 1066.8 66.4176C1066.67 62.4496 1066.53 58.1509 1066.4 53.5216C1066.4 48.8923 1066.4 43.8661 1066.4 38.4432V4.11998H1099.14V143H1068.58L992.596 40.6256L1002.71 42.0144C1003.38 48.3632 1003.91 53.7861 1004.3 58.2832C1004.83 62.648 1005.23 66.5499 1005.49 69.9888C1005.89 73.4277 1006.15 76.536 1006.29 79.3136C1006.42 82.0912 1006.48 84.8688 1006.48 87.6464C1006.62 90.2917 1006.68 93.2677 1006.68 96.5744V143H973.947ZM1180.01 144.984C1170.89 144.984 1162.62 143.926 1155.21 141.81C1147.94 139.561 1141.46 136.387 1135.77 132.286C1130.08 128.054 1124.99 123.094 1120.49 117.406L1140.93 94.1936C1147.54 103.055 1154.15 109.007 1160.77 112.05C1167.51 115.092 1174.46 116.613 1181.6 116.613C1185.17 116.613 1188.41 116.15 1191.32 115.224C1194.23 114.298 1196.48 112.975 1198.07 111.256C1199.65 109.404 1200.45 107.156 1200.45 104.51C1200.45 102.526 1199.92 100.741 1198.86 99.1536C1197.94 97.5664 1196.61 96.1776 1194.89 94.9872C1193.17 93.7968 1191.12 92.7387 1188.74 91.8128C1186.36 90.7547 1183.85 89.8949 1181.2 89.2336C1178.56 88.44 1175.85 87.7787 1173.07 87.2496C1165.4 85.5301 1158.72 83.4139 1153.03 80.9008C1147.34 78.3877 1142.58 75.3456 1138.75 71.7744C1135.04 68.0709 1132.26 63.9045 1130.41 59.2752C1128.56 54.5136 1127.64 49.2229 1127.64 43.4032C1127.64 37.1867 1129.02 31.4992 1131.8 26.3408C1134.71 21.0501 1138.55 16.5531 1143.31 12.8496C1148.2 9.01385 1153.82 6.10398 1160.17 4.11998C1166.52 2.00372 1173.14 0.945589 1180.01 0.945589C1189.14 0.945589 1196.94 1.93759 1203.42 3.92159C1210.04 5.77332 1215.66 8.48479 1220.29 12.056C1225.05 15.6272 1229.08 19.9259 1232.39 24.952L1211.56 44.9904C1208.78 41.5515 1205.74 38.7077 1202.43 36.4592C1199.26 34.2107 1195.82 32.4912 1192.12 31.3008C1188.54 30.1104 1184.84 29.5152 1181.01 29.5152C1177.04 29.5152 1173.6 30.0443 1170.69 31.1024C1167.91 32.0283 1165.73 33.4171 1164.14 35.2688C1162.55 36.9883 1161.76 39.1045 1161.76 41.6176C1161.76 43.8661 1162.42 45.784 1163.74 47.3712C1165.07 48.9584 1166.85 50.4133 1169.1 51.736C1171.35 52.9264 1173.93 53.9845 1176.84 54.9104C1179.75 55.704 1182.79 56.3653 1185.97 56.8944C1193.24 58.3493 1199.79 60.2672 1205.61 62.648C1211.56 65.0288 1216.65 67.9387 1220.88 71.3776C1225.25 74.8165 1228.55 78.9168 1230.8 83.6784C1233.18 88.3077 1234.37 93.7307 1234.37 99.9472C1234.37 109.603 1231.99 117.803 1227.23 124.549C1222.6 131.162 1216.19 136.254 1207.99 139.826C1199.92 143.265 1190.59 144.984 1180.01 144.984ZM1344.51 95.384L1338.16 69.3936C1341.99 68.4677 1345.63 67.4096 1349.07 66.2192C1352.51 64.8965 1355.68 63.5077 1358.59 62.0528C1361.5 60.5979 1363.95 58.9445 1365.93 57.0928C1368.05 55.1088 1369.7 52.9925 1370.89 50.744C1372.08 48.3632 1372.68 45.8501 1372.68 43.2048C1372.68 40.5595 1372.02 38.3109 1370.7 36.4592C1369.37 34.4752 1367.59 32.9541 1365.34 31.896C1363.09 30.8379 1360.44 30.3088 1357.4 30.3088C1353.04 30.3088 1348.67 31.896 1344.31 35.0704C1339.94 38.1125 1335.91 43.0725 1332.21 49.9504L1310.58 29.912C1316.53 20.7856 1323.61 13.7093 1331.81 8.68318C1340.14 3.65705 1348.81 1.14399 1357.8 1.14399C1366.53 1.14399 1374.4 2.92959 1381.41 6.50079C1388.42 9.93972 1393.97 14.7675 1398.07 20.984C1402.18 27.0683 1404.23 33.9461 1404.23 41.6176C1404.23 46.5115 1403.17 51.3392 1401.05 56.1008C1399.07 60.8624 1396.22 65.3595 1392.52 69.592C1388.95 73.6923 1384.72 77.3296 1379.82 80.504C1374.93 83.6784 1369.51 86.1253 1363.55 87.8448L1361.57 95.384H1344.51ZM1337.36 127.525C1337.36 122.234 1338.95 117.935 1342.13 114.629C1345.3 111.322 1349.4 109.669 1354.43 109.669C1359.85 109.669 1364.08 111.256 1367.12 114.43C1370.17 117.473 1371.69 121.837 1371.69 127.525C1371.69 132.683 1370.1 136.916 1366.93 140.222C1363.75 143.529 1359.59 145.182 1354.43 145.182C1349 145.182 1344.77 143.661 1341.73 140.619C1338.82 137.577 1337.36 133.212 1337.36 127.525Z" fill="#F8F9FF"/>
</svg>
